<svg xmlns="http://www.w3.org/2000/svg" height="150" viewBox="0 0 150 150" width="150">

    <svg height="41" viewBox="0 0 20 41" width="20" x="115" y="0"><path fill="#f27020" d="M19.199 37.582L4.497 20.647 19.261 2.963c.817-1.231.896-1.196.079-2.013s-1.539-.286-2.355.529L1.52 19.169a2.093 2.093 0 0 0 0 2.958l15.464 17.689c.408.408.918.612 1.48.612.561 0 .754-.114 1.163-.521.817-.816.207-1.282-.428-2.325z"/></svg>

    <svg height="41" viewBox="0 0 20 41" width="20" x="115" y="42"><path fill="#4c4c4c" d="M19.199 37.582L4.497 20.647 19.261 2.963c.817-1.231.896-1.196.079-2.013s-1.539-.286-2.355.529L1.52 19.169a2.093 2.093 0 0 0 0 2.958l15.464 17.689c.408.408.918.612 1.48.612.561 0 .754-.114 1.163-.521.817-.816.207-1.282-.428-2.325z"/></svg>

    <svg height="41" viewBox="0 0 20 41" width="20" x="115" y="83"><path fill="#4c4c4c" d="M18.48 19.169L3.016 1.479C2.2.664 1.477.134.661.95c-.817.816-.738.781.079 2.013l14.765 17.685L.801 37.582c-.636 1.043-1.246 1.509-.429 2.325.409.407.602.521 1.164.521s1.072-.204 1.48-.612L18.48 22.127a2.091 2.091 0 0 0 0-2.958z"/></svg>

    <svg height="41" viewBox="0 0 20 41" width="20" x="93" y="83"><path fill="#f27020" d="M18.48 19.169L3.016 1.479C2.2.664 1.477.134.661.95c-.817.816-.738.781.079 2.013l14.765 17.685L.801 37.582c-.636 1.043-1.246 1.509-.429 2.325.409.407.602.521 1.164.521s1.072-.204 1.48-.612L18.48 22.127a2.091 2.091 0 0 0 0-2.958z" id="Forma_1_copy_5"/></svg>

    <svg xmlns="http://www.w3.org/2000/svg" xmlns:xlink="http://www.w3.org/1999/xlink" xmlns:xodm="http://www.corel.com/coreldraw/odm/2003" xml:space="preserve" width="12.8166mm" height="10.3269mm" version="1.1" style="shape-rendering:geometricPrecision; text-rendering:geometricPrecision; image-rendering:optimizeQuality; fill-rule:evenodd; clip-rule:evenodd" viewBox="0 0 87.76 70.71">
 <defs>
  <style type="text/css">
   <![CDATA[
    .fil0 {fill:#FFC000}
    .fil1 {fill:black;fill-rule:nonzero}
   ]]>
  </style>
 </defs>
        <g id="Layer_x0020_1">
  <metadata id="CorelCorpID_0Corel-Layer"/>
            <g id="_2069717439936">
   <path class="fil0" d="M5.87 32.05l55.27 -22.12 19.77 8.08c0.82,0.33 1.56,0.8 2.2,1.36 -0.03,0.11 -0.06,0.22 -0.1,0.33l-6.61 19.35 -53.12 27.06c-0.07,0.04 0.05,-0.03 -0.06,0.02 -0.37,0.17 -0.8,0.15 -1.19,-0.01 -0.47,-0.2 -0.9,-0.58 -1.16,-1.09l-0 -0.01c-0.01,-0.02 0.02,0.02 -0.04,-0.09l-14.95 -32.88z"/>
                <path class="fil1" d="M61.59 0.17l4.96 2.03 10.45 4.27 4.35 1.78c2.49,1.02 4.39,2.97 5.45,5.3 1.06,2.32 1.28,5.04 0.41,7.59l-6.91 20.21c-0.2,0.6 -0.63,1.05 -1.16,1.3l-53.87 27.44c-0.17,0.08 -0.22,0.11 -0.22,0.12 -1.54,0.7 -3.24,0.65 -4.74,0.03 -1.43,-0.59 -2.68,-1.7 -3.43,-3.18l-0.01 -0.03c-0.08,-0.16 -0.12,-0.23 -0.12,-0.24l-16.15 -35.52c-0.01,-0.01 -0.04,-0.1 -0.12,-0.29 -0.61,-1.54 -0.63,-3.21 -0.14,-4.67 0.52,-1.54 1.6,-2.85 3.13,-3.55 0.01,-0 0.07,-0.03 0.24,-0.09l56.19 -22.5c0.56,-0.23 1.16,-0.21 1.68,0l0 -0zm13.74 10.43l-0.01 -0 -0.01 -0 -14.58 -5.96 -55.35 22.16c-0.07,0.03 0.05,-0.02 -0.06,0.03 -0.37,0.17 -0.63,0.5 -0.77,0.91 -0.17,0.48 -0.15,1.05 0.06,1.58 0.02,0.05 -0,-0.01 0.05,0.1l16.15 35.52c0.05,0.11 0.03,0.07 0.04,0.09l0 0.01c0.26,0.51 0.68,0.89 1.16,1.09 0.39,0.16 0.82,0.18 1.19,0.01 0.1,-0.05 -0.01,0.02 0.06,-0.02l53.12 -27.06 6.61 -19.35c0.49,-1.42 0.35,-2.96 -0.26,-4.3 -0.61,-1.34 -1.68,-2.45 -3.07,-3.02l-4.34 -1.77z"/>
                <path class="fil1" d="M74.92 18.91c0.8,1.76 0.85,3.68 0.28,5.35 -0.59,1.72 -1.82,3.18 -3.56,3.97 -1.74,0.79 -3.65,0.76 -5.33,0.07 -1.64,-0.67 -3.05,-1.96 -3.85,-3.73 -0.8,-1.76 -0.85,-3.68 -0.28,-5.35 0.59,-1.72 1.82,-3.18 3.56,-3.97 1.74,-0.79 3.65,-0.76 5.33,-0.07 1.64,0.67 3.05,1.96 3.85,3.73zm-3.94 3.91c0.22,-0.63 0.19,-1.37 -0.13,-2.07 -0.32,-0.7 -0.86,-1.2 -1.47,-1.45 -0.57,-0.23 -1.21,-0.25 -1.79,0.02 -0.58,0.26 -0.99,0.76 -1.19,1.34 -0.22,0.63 -0.19,1.37 0.13,2.07 0.32,0.7 0.86,1.2 1.47,1.45 0.57,0.23 1.21,0.25 1.79,-0.02 0.58,-0.26 0.99,-0.76 1.19,-1.34z"/>
                <path class="fil1" d="M28.06 23.24l0.33 -0.15c2.15,-0.98 4.4,-0.84 6.78,0.43 1.46,0.89 2.49,2.01 3.1,3.35 1.35,2.98 0.8,5.88 -1.64,8.69 -0.78,0.65 -1.45,1.11 -2.03,1.37l-0.12 0.06c-2.69,1.22 -5.34,0.86 -7.95,-1.09 -0.93,-0.77 -1.63,-1.66 -2.09,-2.68 -1.37,-3.02 -0.78,-5.95 1.79,-8.76 0.57,-0.51 1.18,-0.92 1.84,-1.22zm15.29 -6.49l0.25 -0.12c1.22,-0.27 2.05,0.06 2.48,0.99l0.12 0.27c0.17,0.38 -0.1,2.07 -0.82,5.06l-6.1 27.18c-0.39,0.47 -0.71,0.77 -0.99,0.89l-0.12 0.06c-1.28,0.28 -2.12,-0.01 -2.51,-0.87l-0.13 -0.28c-0.23,-0.5 -0.05,-1.85 0.55,-4.06l6.35 -28.18c0.28,-0.46 0.59,-0.78 0.92,-0.93zm-15.24 14.79l0.04 0.08c0.69,1.51 1.99,2.16 3.92,1.96l0.6 -0.23 0.32 -0.15c1.47,-0.67 2.09,-1.99 1.86,-3.95l-0.22 -0.69c-0.7,-1.55 -2.01,-2.22 -3.91,-2.03l-0.83 0.23c-1.52,0.69 -2.21,1.97 -2.06,3.84l0.29 0.92zm19.17 -1.12c2.71,-1.23 5.47,-0.8 8.3,1.29 0.81,0.87 1.39,1.69 1.74,2.46l0.1 0.21c1.23,2.7 0.75,5.43 -1.43,8.17 -0.73,0.76 -1.52,1.33 -2.4,1.73l-0.12 0.06c-2.36,1.07 -4.81,0.82 -7.35,-0.76 -1.15,-0.81 -1.98,-1.76 -2.47,-2.85l-0.19 -0.41c-1.11,-2.44 -0.79,-4.96 0.95,-7.54 0.91,-1.11 1.87,-1.9 2.88,-2.36zm-0.17 8.41c0.68,1.5 1.94,2.19 3.79,2.08l0.89 -0.28 0.23 -0.1c1.44,-0.66 2.08,-1.94 1.9,-3.85l-0.18 -0.54 -0.2 -0.43c-0.68,-1.5 -2.02,-2.11 -4.03,-1.82l-0.63 0.21c-1.6,0.73 -2.25,2.12 -1.96,4.18l0.19 0.56z"/>
  </g>
 </g>
</svg>

    <svg xmlns="http://www.w3.org/2000/svg" xmlns:xlink="http://www.w3.org/1999/xlink" xmlns:xodm="http://www.corel.com/coreldraw/odm/2003" xml:space="preserve" width="11.5519mm" height="10.5908mm" version="1.1" style="shape-rendering:geometricPrecision; text-rendering:geometricPrecision; image-rendering:optimizeQuality; fill-rule:evenodd; clip-rule:evenodd" viewBox="0 0 91.89 84.25" x="50" y="0">
 <defs>
  <style type="text/css">
   <![CDATA[
    .fil0 {fill:#FFC000}
    .fil1 {fill:black;fill-rule:nonzero}
   ]]>
  </style>
 </defs>
        <g id="Layer_x0020_1">
  <metadata id="CorelCorpID_0Corel-Layer"/>
            <g id="_2069715660016">
   <path class="fil0" d="M38.87 43.01l25.64 0c15.25,0 11.47,19.16 5.38,31.77 -0.51,1.06 -1.15,2.01 -1.84,2.89 -3.04,0.93 -6.7,1.39 -11.16,1.39l-17.76 0c-0.07,0 -0.13,-0.03 -0.18,-0.08 -0.05,-0.05 -0.08,-0.11 -0.08,-0.18l0 -35.78zm23.69 -11.88c0.95,-1.32 1.74,-2.84 2.31,-4.45 -0.61,0.26 -1.32,0.29 -1.98,0.02 -1.33,-0.53 -1.97,-2.04 -1.44,-3.37 0.36,-0.9 0.69,-1.79 0.98,-2.67 0.28,-0.85 0.5,-1.64 0.65,-2.36 0.27,-1.27 0.3,-2.64 0.15,-4.03 -0.11,-0.11 -0.22,-0.21 -0.34,-0.31 -1.57,2.58 -14.02,16.8 -11.31,20.63 -0.1,-0.27 -0.15,-0.56 -0.15,-0.87 0,-1.43 1.16,-2.59 2.59,-2.59l8.53 0z"/>
                <path class="fil0" d="M0.9 43.01l6.71 0c15.25,0 11.47,19.16 5.38,31.77 -0.51,1.06 -1.15,2.01 -1.84,2.89 -3.04,0.93 -4.39,1.39 -8.85,1.39l-1.4 0 0 -36.04z"/>
                <path class="fil1" d="M54.03 36.32c-1.43,0 -2.59,-1.16 -2.59,-2.6 0,-1.43 1.16,-2.59 2.59,-2.59l27.26 0c0.53,0 1.08,0.07 1.63,0.19 2.58,0.58 4.87,2.52 6.48,4.95 1.52,2.31 2.48,5.16 2.48,7.72l0.01 0c0,0.69 -0.07,1.39 -0.23,2.08l-0.01 0.04c-5.73,25.42 -8.59,38.12 -34.76,38.12l-17.76 0c-1.5,0 -2.87,-0.61 -3.85,-1.6 -0.99,-0.99 -1.6,-2.35 -1.6,-3.85l0 -45.07c0,-0.85 0.41,-1.61 1.05,-2.08 1.74,-1.54 16.51,-14.81 16.37,-19.28 -0.11,-3.36 0.08,-5.86 0.93,-7.81 1.03,-2.36 2.78,-3.74 5.67,-4.43 0.74,-0.18 1.48,-0.18 2.23,-0.02 1.92,0.4 3.7,1.9 5.12,4.02 1.23,1.84 2.25,4.22 2.85,6.73 0.66,2.75 0.83,5.75 0.25,8.49 -0.2,0.94 -0.47,1.92 -0.79,2.91 -0.31,0.96 -0.69,1.97 -1.1,3 -0.53,1.33 -2.04,1.97 -3.37,1.44 -1.33,-0.53 -1.97,-2.04 -1.44,-3.37 0.36,-0.9 0.69,-1.79 0.98,-2.67 0.28,-0.85 0.5,-1.64 0.65,-2.36 0.41,-1.94 0.27,-4.15 -0.23,-6.24 -0.46,-1.94 -1.21,-3.72 -2.1,-5.05 -0.69,-1.03 -1.36,-1.72 -1.87,-1.83 -1.14,0.28 -1.79,0.73 -2.11,1.44 -0.5,1.13 -0.59,2.96 -0.51,5.57 0.2,6.26 -13.72,19.33 -17.39,22.67l0 43.92c0,0.07 0.03,0.13 0.08,0.18 0.05,0.05 0.11,0.08 0.18,0.08l17.76 0c22.04,0 24.59,-11.34 29.71,-34.06l0.01 -0.04c0.06,-0.27 0.09,-0.59 0.09,-0.95l0.01 0c0,-1.56 -0.63,-3.37 -1.63,-4.88 -0.92,-1.4 -2.1,-2.48 -3.29,-2.75 -0.15,-0.03 -0.31,-0.05 -0.5,-0.05l-27.26 0z"/>
                <path class="fil1" d="M10.5 31.13l5.68 0c2.89,0 5.51,1.18 7.42,3.08 1.9,1.9 3.08,4.53 3.08,7.42l0 31.45c0,2.89 -1.18,5.52 -3.08,7.42 -1.9,1.9 -4.53,3.08 -7.42,3.08l-16.18 0 0 -41.95c0,-2.89 1.18,-5.52 3.08,-7.42 1.9,-1.9 4.53,-3.08 7.42,-3.08zm5.68 5.19l-5.68 0c-1.46,0 -2.78,0.6 -3.75,1.56 -0.96,0.96 -1.56,2.29 -1.56,3.75l0 36.76 10.99 0c1.46,0 2.78,-0.6 3.75,-1.56 0.96,-0.96 1.56,-2.29 1.56,-3.75l0 -31.45c0,-1.46 -0.6,-2.79 -1.56,-3.75 -0.96,-0.96 -2.29,-1.56 -3.75,-1.56z"/>
  </g>
 </g>
</svg>

    <svg xmlns="http://www.w3.org/2000/svg" xmlns:xlink="http://www.w3.org/1999/xlink" xmlns:xodm="http://www.corel.com/coreldraw/odm/2003" xml:space="preserve" width="14.9322mm" height="7.284mm" version="1.1" style="shape-rendering:geometricPrecision; text-rendering:geometricPrecision; image-rendering:optimizeQuality; fill-rule:evenodd; clip-rule:evenodd" viewBox="0 0 210.76 102.81" x="0" y="40">
 <defs>
  <style type="text/css">
   <![CDATA[
    .fil0 {fill:#FFC000}
    .fil1 {fill:black;fill-rule:nonzero}
    .fil2 {fill:#FFC000;fill-rule:nonzero}
   ]]>
  </style>
 </defs>
        <g id="Layer_x0020_1">
  <metadata id="CorelCorpID_0Corel-Layer"/>
            <g id="_2069719456448">
   <path class="fil0" d="M65.65 16.08l66.31 0c6.97,0 12.66,5.7 12.66,12.66l0 53 -78.97 0 0 -65.66z"/>
                <path class="fil1" d="M178.05 31.99c2.54,0 4.61,2.06 4.61,4.6 0,2.54 -2.06,4.61 -4.61,4.61l-18.15 0c-2.54,0 -4.61,-2.06 -4.61,-4.61 0,-2.54 2.06,-4.6 4.61,-4.6l18.15 0z"/>
                <path class="fil1" d="M79.15 86.81c0,-0.16 0.01,-0.33 0.02,-0.48l-13.64 0c0.01,0.16 0.02,0.32 0.02,0.48 0,1.88 0.76,3.58 1.99,4.81 1.23,1.23 2.93,1.99 4.8,1.99 1.88,0 3.58,-0.76 4.81,-1.99 1.23,-1.23 1.99,-2.93 1.99,-4.81zm48.2 -37.95c2.54,0 4.6,2.06 4.6,4.6 0,2.54 -2.06,4.6 -4.6,4.6l-74.14 0 0 19.04 74.14 0c2.54,0 4.6,2.06 4.6,4.6 0,5.28 -0.54,10.16 -2.7,13.91 -4.9,8.49 -17.73,9.41 -24.64,2.5 -2.9,-2.9 -4.69,-6.9 -4.69,-11.32 0,-0.16 0.01,-0.33 0.03,-0.48l-11.62 0c0.02,0.16 0.03,0.32 0.03,0.48 0,4.42 -1.79,8.42 -4.69,11.32 -2.9,2.9 -6.9,4.69 -11.32,4.69 -4.42,0 -8.42,-1.79 -11.32,-4.69 -2.9,-2.9 -4.69,-6.9 -4.69,-11.32 0,-0.16 0.01,-0.33 0.02,-0.48l-7.77 0c-2.54,0 -4.6,-2.06 -4.6,-4.61l0 -28.07 0 -0.09 -0 -0.09c0,-2.54 2.06,-4.6 4.6,-4.6l78.74 0zm-30.45 -18.42c2.54,0 4.6,2.06 4.6,4.61 0,2.54 -2.06,4.6 -4.6,4.6l-78.74 0c-2.54,0 -4.6,-2.06 -4.6,-4.6 0,-2.54 2.06,-4.61 4.6,-4.61l25.84 0 0 -25.84c0,-2.54 2.06,-4.6 4.6,-4.6l82.8 0c4.75,0 9.07,1.94 12.2,5.07 3.13,3.13 5.07,7.45 5.07,12.2l0 59.84 52.88 0 0 -22.66c0,-8.23 -3.37,-15.71 -8.79,-21.14 -5.43,-5.42 -12.91,-8.79 -21.14,-8.79l-12.73 0c-2.54,0 -4.6,-2.06 -4.6,-4.6 0,-2.54 2.06,-4.61 4.6,-4.61l12.73 0c10.77,0 20.55,4.4 27.65,11.49 7.09,7.09 11.49,16.88 11.49,27.65l0 27.27c0,2.54 -2.06,4.61 -4.61,4.61l-33.37 0c0.02,0.16 0.03,0.32 0.03,0.48 0,4.42 -1.79,8.42 -4.69,11.32 -2.9,2.9 -6.9,4.69 -11.32,4.69 -11.51,0 -17.34,-10.63 -17.34,-21.1l0 -64.45c0,-2.21 -0.91,-4.22 -2.37,-5.69 -1.46,-1.46 -3.47,-2.37 -5.69,-2.37l-78.19 0 0 21.23 43.69 0zm25.85 55.88l-13.64 0c0.02,0.16 0.03,0.32 0.03,0.48 0,1.88 0.76,3.58 1.99,4.81 1.23,1.23 2.93,1.99 4.8,1.99 1.88,0 3.58,-0.76 4.81,-1.99 1.23,-1.23 1.99,-2.93 1.99,-4.81 0,-0.16 0.01,-0.33 0.02,-0.48zm40.87 0l-13.64 0c0.01,0.16 0.02,0.32 0.02,0.48 0,1.88 0.76,3.58 1.99,4.81 1.23,1.23 2.93,1.99 4.8,1.99 1.88,0 3.58,-0.76 4.8,-1.99 1.23,-1.23 1.99,-2.93 1.99,-4.81 0,-0.16 0.01,-0.33 0.03,-0.48z"/>
                <path class="fil2" d="M22.75 48.86c2.54,0 4.6,2.06 4.6,4.6 0,2.54 -2.06,4.6 -4.6,4.6l-18.15 0c-2.54,0 -4.61,-2.06 -4.61,-4.6 0,-2.54 2.06,-4.6 4.61,-4.6l18.15 0z"/>
  </g>
 </g>
</svg>

    <svg xmlns="http://www.w3.org/2000/svg" xmlns:xlink="http://www.w3.org/1999/xlink" xmlns:xodm="http://www.corel.com/coreldraw/odm/2003" xml:space="preserve" width="8.921mm" height="7.6681mm" version="1.1" style="shape-rendering:geometricPrecision; text-rendering:geometricPrecision; image-rendering:optimizeQuality; fill-rule:evenodd; clip-rule:evenodd" viewBox="0 0 133.52 114.77" x="60" y="45">
 <defs>
  <style type="text/css">
   <![CDATA[
    .fil0 {fill:#FFC000}
    .fil1 {fill:black;fill-rule:nonzero}
   ]]>
  </style>
 </defs>
        <g id="Layer_x0020_1">
  <metadata id="CorelCorpID_0Corel-Layer"/>
            <g id="_2069899358736">
   <path class="fil0" d="M23.68 0l81.45 0c15.61,0 28.39,12.77 28.39,28.39l0 58.74c0,5.13 -3.29,9.53 -7.86,11.2 0.21,-1.04 0.33,-2.12 0.33,-3.21l0 -20.86c0.02,-0.16 0.03,-0.32 0.03,-0.49 0,-2.11 -1.49,-3.87 -3.47,-4.29l0 -12.04c1.98,-0.43 3.47,-2.19 3.47,-4.29 0,-0.16 -0.01,-0.33 -0.03,-0.49l0 -16.28c0,-9.02 -3.69,-17.22 -9.63,-23.16 -5.94,-5.94 -14.14,-9.63 -23.16,-9.63l-69.88 0c-6.42,0 -12.25,2.62 -16.47,6.85l-0.16 0.16c3.09,-6.27 9.56,-10.6 16.98,-10.6zm92.42 99.05l-7.77 0 0 -20.89 8.88 0 0 16.96c0,1.45 -0.4,2.8 -1.1,3.93zm-100.2 -75.18l-6.78 0c0.6,-2.78 2,-5.27 3.95,-7.22 2.64,-2.64 6.27,-4.27 10.26,-4.27l69.88 0c6.59,0 12.59,2.7 16.94,7.05 4.35,4.35 7.05,10.35 7.05,16.95l0 12.37 -8.88 0 0 -14.46c0,-4.07 -1.66,-7.78 -4.34,-10.46 -2.68,-2.68 -6.38,-4.34 -10.46,-4.34l-73.24 0c-2.43,0 -4.39,1.97 -4.39,4.39z"/>
                <path class="fil1" d="M0.09 24.89c0.49,-5.61 2.98,-10.67 6.76,-14.45 4.22,-4.22 10.05,-6.85 16.47,-6.85l69.88 0c9.02,0 17.22,3.69 23.16,9.63 5.94,5.94 9.63,14.14 9.63,23.16l0 16.28c0.02,0.16 0.03,0.32 0.03,0.49 0,2.43 -1.97,4.39 -4.39,4.39l-36.46 0c-1.62,0 -3.1,0.67 -4.18,1.74 -2.32,2.32 -2.32,6.04 0,8.36 1.07,1.07 2.55,1.74 4.18,1.74l36.46 0c2.43,0 4.39,1.97 4.39,4.39 0,0.16 -0.01,0.33 -0.03,0.49l0 20.86c0,3.18 -0.94,6.18 -2.56,8.72 -1.66,2.61 -4.04,4.72 -6.84,6.03 -2.19,1.03 -4.8,0.1 -5.83,-2.09 -1.03,-2.19 -0.1,-4.8 2.09,-5.83 1.32,-0.62 2.43,-1.6 3.2,-2.81 0.73,-1.15 1.16,-2.53 1.16,-4.02l0 -16.96 -8.88 0 0 21.81c0,4.07 -1.66,7.78 -4.34,10.46 -2.68,2.68 -6.38,4.34 -10.46,4.34l-87.23 0c-3.46,0 -6.29,-2.83 -6.29,-6.28l0 -81.57c0,-0.66 -0.04,-1.38 0.09,-2.02zm117.11 23.86l0 -12.37c0,-6.6 -2.7,-12.59 -7.05,-16.95 -4.35,-4.35 -10.35,-7.05 -16.94,-7.05l-69.88 0c-3.99,0 -7.62,1.64 -10.26,4.27 -2.64,2.64 -4.27,6.27 -4.27,10.26l0 79.07 84.73 0c1.65,0 3.15,-0.68 4.25,-1.77 1.09,-1.09 1.77,-2.6 1.77,-4.24l0 -21.81 -14.38 0c-4.05,0 -7.73,-1.65 -10.39,-4.32 -5.76,-5.75 -5.76,-15.03 0,-20.78 2.66,-2.66 6.34,-4.32 10.39,-4.32l14.38 0 0 -14.46c0,-1.65 -0.68,-3.15 -1.77,-4.25 -1.09,-1.09 -2.6,-1.77 -4.25,-1.77l-73.24 0c-2.43,0 -4.39,-1.97 -4.39,-4.39 0,-2.42 1.97,-4.39 4.39,-4.39l73.24 0c4.08,0 7.78,1.66 10.46,4.34 2.68,2.68 4.34,6.38 4.34,10.46l0 14.46 8.88 0z"/>
  </g>
 </g>
</svg>

    <svg xmlns="http://www.w3.org/2000/svg" xmlns:xlink="http://www.w3.org/1999/xlink" xmlns:xodm="http://www.corel.com/coreldraw/odm/2003" xml:space="preserve" width="7.7155mm" height="8.6231mm" version="1.1" style="shape-rendering:geometricPrecision; text-rendering:geometricPrecision; image-rendering:optimizeQuality; fill-rule:evenodd; clip-rule:evenodd" viewBox="0 0 234.02 261.55" x="0" y="70">
 <defs>
  <style type="text/css">
   <![CDATA[
    .fil0 {fill:#FFC000}
    .fil1 {fill:black;fill-rule:nonzero}
    .fil2 {fill:white;fill-rule:nonzero}
   ]]>
  </style>
 </defs>
        <g id="Layer_x0020_1">
  <metadata id="CorelCorpID_0Corel-Layer"/>
            <g id="_2069722124544">
   <path class="fil0" d="M83.77 207.06c-17.32,-14.67 -28.49,-37.83 -28.48,-63.88 0.01,-22.12 8.08,-42.15 21.13,-56.67 11.49,-8.05 25.5,-12.78 40.62,-12.77 3.56,0 7.08,0.27 10.52,0.78 3.59,0.54 7.01,1.31 10.24,2.3 14.66,4.5 27.3,13.63 36.21,25.7 8.68,11.76 13.81,26.3 13.8,42.04 -0.01,19.56 -7.94,37.27 -20.76,50.07 -12.67,12.66 -30.15,20.54 -49.48,20.68 -0.39,-0.03 -0.77,-0.03 -1.15,0 -11.8,-0.1 -22.9,-3.08 -32.65,-8.27z"/>
                <path class="fil1" d="M111.26 37.33c-0,4.87 -3.95,8.81 -8.81,8.8l-0.12 0c-0.38,0.12 -0.77,0.21 -1.18,0.28 -2.9,0.46 -5.87,1.09 -8.91,1.87 -3.01,0.77 -5.9,1.65 -8.65,2.64 -4.58,1.64 -9.62,-0.73 -11.27,-5.31 -1.64,-4.58 0.73,-9.62 5.31,-11.27 3.41,-1.22 6.83,-2.27 10.23,-3.14 1.87,-0.48 3.8,-0.92 5.79,-1.32l0 -6.45c0,-6.43 2.64,-12.28 6.88,-16.52 4.26,-4.25 10.12,-6.89 16.56,-6.89 6.43,0.01 12.28,2.64 16.52,6.88 4.26,4.26 6.89,10.12 6.89,16.56l0 6.44c25.81,5.26 48.54,19.02 65.12,38.24 17.71,20.52 28.42,47.25 28.41,76.48l0 0.04c-0.03,32.28 -13.13,61.5 -34.31,82.65 -21.2,21.18 -50.46,34.27 -82.76,34.26l-0.04 0c-32.28,-0.02 -61.5,-13.13 -82.66,-34.3 -21.18,-21.2 -34.27,-50.46 -34.26,-82.76 0.01,-18.78 4.46,-36.56 12.36,-52.32 8.2,-16.36 20.1,-30.51 34.59,-41.35 1.66,-1.24 3.42,-2.49 5.3,-3.74 1.82,-1.21 3.64,-2.35 5.47,-3.42 4.19,-2.47 9.58,-1.07 12.05,3.12 2.47,4.19 1.07,9.58 -3.12,12.05 -1.61,0.95 -3.16,1.92 -4.66,2.91 -1.44,0.96 -2.93,2.01 -4.46,3.16 -12.36,9.25 -22.49,21.28 -29.45,35.16 -6.69,13.35 -10.46,28.44 -10.47,44.44 -0.02,27.46 11.09,52.31 29.05,70.29 17.85,17.87 42.49,28.98 69.73,29.14 0.38,-0.02 0.76,-0.03 1.15,0 27.23,-0.14 51.86,-11.21 69.71,-29.05 17.87,-17.85 28.98,-42.49 29.14,-69.72 -0.03,-0.39 -0.03,-0.77 0,-1.16 -0.13,-24.6 -9.19,-47.08 -24.11,-64.36 -15.24,-17.66 -36.61,-29.9 -60.82,-33.43 -1.91,-0.28 -3.64,-0.49 -5.16,-0.63 -1.44,-0.13 -3.15,-0.24 -5.15,-0.32 -4.87,-0.2 -8.66,-4.31 -8.46,-9.18 0.2,-4.87 4.31,-8.66 9.18,-8.46 0.32,0.01 0.65,0.03 0.98,0.05l0 -4.23c0,-1.6 -0.65,-3.05 -1.69,-4.09 -1.06,-1.06 -2.52,-1.71 -4.12,-1.72 -1.6,0 -3.05,0.65 -4.09,1.69 -1.06,1.06 -1.71,2.52 -1.72,4.12l-0.01 13.9zm5.8 18.81c4.48,0 8.87,0.33 13.14,0.97 4.29,0.64 8.56,1.62 12.79,2.92 18.31,5.62 34.09,17.01 45.19,32.05 10.85,14.69 17.25,32.85 17.24,52.51 -0.01,24.4 -9.92,46.48 -25.92,62.47 -16.02,16.01 -38.14,25.9 -62.53,25.89l-0.04 -0c-24.38,-0.02 -46.45,-9.92 -62.43,-25.92 -16.01,-16.02 -25.9,-38.13 -25.89,-62.53l0 -0.04c0.02,-24.38 9.92,-46.46 25.92,-62.43 16.02,-16.01 38.13,-25.9 62.53,-25.89zm10.5 18.4c-3.44,-0.52 -6.96,-0.78 -10.52,-0.78 -19.56,-0.01 -37.26,7.9 -50.06,20.68 -12.69,12.68 -20.59,30.17 -20.76,49.51 0.02,0.38 0.03,0.76 0,1.15 0.15,19.33 8.02,36.81 20.68,49.48 12.68,12.7 30.16,20.6 49.5,20.76 0.38,-0.03 0.76,-0.03 1.15,0 19.33,-0.15 36.81,-8.02 49.48,-20.68 12.82,-12.81 20.75,-30.51 20.76,-50.07 0.01,-15.74 -5.12,-30.28 -13.8,-42.04 -8.91,-12.07 -21.55,-21.21 -36.21,-25.7 -3.23,-0.99 -6.65,-1.76 -10.24,-2.3z"/>
                <path class="fil2" d="M143.08 101.23c-4.19,-2.48 -5.57,-7.89 -3.08,-12.07 2.48,-4.18 7.89,-5.56 12.07,-3.08 4.53,2.71 8.66,5.99 12.28,9.75 3.6,3.72 6.72,7.95 9.28,12.58 2.35,4.26 0.8,9.61 -3.45,11.96 -4.26,2.35 -9.61,0.8 -11.96,-3.46 -1.77,-3.21 -3.98,-6.18 -6.55,-8.84 -2.56,-2.64 -5.44,-4.95 -8.59,-6.83z"/>
                <path class="fil1" d="M86.31 152.76c4.87,-0 8.81,-3.95 8.8,-8.82 -0.01,-4.87 -3.95,-8.8 -8.81,-8.8l-19.91 0.01c-4.87,0.01 -8.81,3.95 -8.8,8.82 0,4.87 3.95,8.8 8.81,8.8l19.91 -0.01z"/>
                <path class="fil1" d="M148.11 134.81c-4.87,0 -8.81,3.95 -8.8,8.82 0.01,4.87 3.95,8.8 8.81,8.8l19.91 -0.01c4.87,-0.01 8.81,-3.95 8.8,-8.82 -0,-4.87 -3.95,-8.8 -8.81,-8.8l-19.91 0.01z"/>
                <path class="fil1" d="M125.83 177.17c-0,-4.87 -3.95,-8.81 -8.81,-8.8 -4.86,0 -8.81,3.95 -8.8,8.81l0.01 17.38c0,4.87 3.95,8.81 8.81,8.8 4.87,-0 8.81,-3.95 8.8,-8.81l-0.01 -17.38z"/>
                <path class="fil1" d="M108.58 143.72c0,4.87 3.95,8.81 8.81,8.8 3.37,-0 6.29,-1.89 7.77,-4.67l27.74 -27.54c3.44,-3.44 3.43,-9.02 -0.01,-12.45 -3.44,-3.44 -9.02,-3.43 -12.46,0.01l-14.24 14.14 -0.01 -29.01c-0,-4.86 -3.95,-8.81 -8.81,-8.8 -4.86,0 -8.81,3.95 -8.8,8.81l0.01 50.7z"/>
  </g>
 </g>
</svg>

    <svg xmlns="http://www.w3.org/2000/svg" xmlns:xlink="http://www.w3.org/1999/xlink" xmlns:xodm="http://www.corel.com/coreldraw/odm/2003" xml:space="preserve" width="11.0262mm" height="8.1007mm" version="1.1" style="shape-rendering:geometricPrecision; text-rendering:geometricPrecision; image-rendering:optimizeQuality; fill-rule:evenodd; clip-rule:evenodd" viewBox="0 0 1923.87 1413.42" x="0" y="105">
 <defs>
  <style type="text/css">
   <![CDATA[
    .fil0 {fill:#FFC000}
    .fil1 {fill:black;fill-rule:nonzero}
   ]]>
  </style>
 </defs>
        <g id="Layer_x0020_1">
  <metadata id="CorelCorpID_0Corel-Layer"/>
            <g id="_2069471213424">
   <path class="fil0" d="M1544.43 1090.58c66.2,9.79 116.97,66.84 116.97,135.73 0,68.92 -50.77,125.96 -116.97,135.75 1.19,-1.15 2.37,-2.27 3.52,-3.44 33.88,-33.85 54.82,-80.65 54.82,-132.31 0,-51.66 -20.94,-98.44 -54.82,-132.29 -1.15,-1.17 -2.34,-2.32 -3.52,-3.44zm-126.12 223.02c-19.58,-23.71 -31.35,-54.12 -31.35,-87.29 0,-32.99 11.66,-63.28 31.08,-86.96l5.71 0c20.89,1.92 39.68,11.18 53.69,25.21 15.79,15.81 25.56,37.62 25.56,61.75 0,24.13 -9.77,45.98 -25.56,61.75 -15.23,15.23 -36.05,24.85 -59.11,25.54z"/>
                <path class="fil0" d="M945.57 1139.35c19.42,23.68 31.08,53.97 31.08,86.96 0,68.92 -50.79,125.96 -116.97,135.75 1.19,-1.15 2.36,-2.27 3.51,-3.44 33.88,-33.85 54.82,-80.65 54.82,-132.31 0,-31.39 -7.73,-60.96 -21.41,-86.96l48.98 0zm-212.03 174.25c-19.58,-23.71 -31.35,-54.12 -31.35,-87.29 0,-32.99 11.66,-63.28 31.09,-86.96l5.69 0c20.9,1.92 39.66,11.18 53.67,25.21 15.81,15.81 25.6,37.62 25.6,61.75 0,24.13 -9.79,45.98 -25.6,61.75 -15.2,15.23 -36.03,24.85 -59.1,25.54z"/>
                <path class="fil0" d="M1013.02 797.85l-104.9 9.04c-10,-13.07 -26.28,-20.92 -43.92,-19.38l-43.41 3.82 -41.07 -164.57 409.25 0c27.55,0 49.88,-22.33 49.88,-49.88 0,-27.55 -22.33,-49.88 -49.88,-49.88l-434.16 0 -36.43 -145.95 791.01 0c27.53,0 49.88,-22.35 49.88,-49.9 0,-27.53 -22.35,-49.88 -49.88,-49.88l-815.93 0 -45.31 -181.46 1007.07 0c1.61,0 3.19,-0.07 4.78,-0.23 3.87,0.92 7.92,1.4 12.09,1.34 2.97,-0.05 6.42,0.16 10.33,0.59 20.05,2.22 38.86,11.5 52.71,25.2 12.68,12.55 20.87,28.55 21.13,45.5 0.02,1.9 -0.14,4.36 -0.45,7.36l-39.69 358.32c-5.98,54.14 -23.1,99.25 -58.71,131.58 -37.69,34.22 -97.88,56.95 -189.49,64.99l-414.78 36.47c-17.76,1.54 -32.54,12.18 -40.11,26.94zm814.59 -714.76c55.99,11.5 102.04,61.19 95.65,118.87l-36.01 325.06c-9.61,86.82 -46.87,154.33 -138.52,190.92 39.38,-46.67 59.17,-103.94 66.39,-169.16l39.68 -358.32c0.68,-6.04 0.94,-12.55 0.85,-19.44 -0.49,-32.37 -10.85,-62.39 -28.04,-87.94z"/>
                <path class="fil1" d="M541.96 0l1113.26 0c8.1,0 31.01,1.71 38.12,2.5 42.49,4.69 82.25,24.34 111.56,53.27 30.45,30.08 50.08,70.44 50.74,115.26 0.09,6.91 -0.17,13.42 -0.85,19.44l-39.68 358.32c-8.55,77.49 -34.9,143.7 -90.68,194.34 -53.72,48.77 -132.96,80.61 -247.96,90.73l-414.78 36.45c-27.45,2.37 -51.61,-17.95 -53.98,-45.4 -2.37,-27.45 17.97,-51.63 45.42,-53.98l414.78 -36.47c91.6,-8.04 151.8,-30.78 189.49,-64.99 35.61,-32.31 52.73,-77.44 58.71,-131.58l39.69 -358.32c0.3,-3 0.47,-5.46 0.45,-7.36 -0.26,-16.94 -8.44,-32.96 -21.13,-45.49 -13.85,-13.71 -32.65,-23 -52.69,-25.21 -3.91,-0.44 -7.38,-0.65 -10.36,-0.59 -4.15,0.05 -8.2,-0.42 -12.09,-1.34 -1.57,0.16 -3.14,0.23 -4.76,0.23l-1113.26 0 0 -0.02 -0.54 0.02 -201.07 0c-27.41,0 -49.88,-22.46 -49.88,-49.9l0 0c0,-27.45 22.46,-49.88 49.88,-49.88l201.07 0 0.54 0 0 0zm-282.63 341.84l79.55 0c27.45,0 49.9,22.46 49.9,49.9l0 0c0,27.43 -22.49,49.88 -49.9,49.88l-79.55 0c-27.41,0 -49.88,-22.46 -49.88,-49.88l0 0c0,-27.45 22.44,-49.9 49.88,-49.9zm1250.06 -60.6c27.53,0 49.88,22.35 49.88,49.88 0,27.57 -22.35,49.9 -49.88,49.9l-980.97 0 107.57 432.05c16.8,8.03 28.42,25.18 28.42,45.05 0,27.53 -22.35,49.87 -49.9,49.87 -18.04,0 -34.46,7.42 -46.41,19.37 -11.93,11.93 -19.37,28.39 -19.37,46.43l0 0c0,18.02 7.43,34.46 19.37,46.41 11.95,11.93 28.37,19.37 46.41,19.37l104.57 0c3.91,-0.24 7.85,-0.38 11.81,-0.38 3.98,0 7.9,0.14 11.81,0.38l661.15 0c3.91,-0.24 7.83,-0.38 11.79,-0.38 4,0 7.92,0.14 11.81,0.38l3.3 0c4.57,0 8.97,0.61 13.14,1.74 40.36,6.12 76.49,25.13 104.06,52.69 33.88,33.85 54.82,80.63 54.82,132.29 0,51.66 -20.94,98.46 -54.82,132.31 -33.85,33.87 -80.63,54.8 -132.31,54.8 -51.65,0 -98.44,-20.94 -132.29,-54.8 -33.87,-33.85 -54.8,-80.65 -54.8,-132.31 0,-31.37 7.75,-60.95 21.39,-86.96l-353.33 0c13.66,26.02 21.39,55.59 21.39,86.96 0,51.66 -20.94,98.46 -54.8,132.31 -33.85,33.87 -80.65,54.8 -132.31,54.8 -51.65,0 -98.43,-20.94 -132.31,-54.8 -33.85,-33.85 -54.8,-80.65 -54.8,-132.31 0,-34.01 9.09,-65.92 24.97,-93.42 -27.25,-7.89 -51.65,-22.6 -71.21,-42.14 -29.98,-29.98 -48.58,-71.4 -48.58,-116.96l0 0c0,-45.57 18.6,-87 48.58,-116.99 11.6,-11.57 24.9,-21.46 39.49,-29.23l-119.73 -480.87c-1.62,-4.89 -2.5,-10.12 -2.5,-15.58 0,-27.53 22.33,-49.88 49.88,-49.88l1044.71 0zm-1458.7 -31.63c-27.43,0.54 -50.13,-21.27 -50.67,-48.72 -0.54,-27.46 21.29,-50.15 48.73,-50.67l284.41 -6.61c27.45,-0.52 50.13,21.29 50.67,48.73 0.54,27.45 -21.25,50.13 -48.72,50.67l-284.42 6.6zm1373.03 889.73l-16.14 0c-20.89,1.92 -39.66,11.18 -53.67,25.21 -15.81,15.81 -25.58,37.62 -25.58,61.75 0,24.13 9.77,45.96 25.58,61.75 15.81,15.83 37.62,25.6 61.73,25.6 24.13,0 45.98,-9.77 61.78,-25.6 15.79,-15.79 25.58,-37.62 25.58,-61.75 0,-24.13 -9.79,-45.94 -25.58,-61.75 -14.01,-14.03 -32.8,-23.29 -53.71,-25.21zm-684.74 0l-16.16 0c-20.9,1.92 -39.68,11.18 -53.71,25.21 -15.79,15.81 -25.56,37.62 -25.56,61.75 0,24.13 9.77,45.96 25.56,61.75 15.79,15.83 37.65,25.6 61.77,25.6 24.13,0 45.96,-9.77 61.75,-25.6 15.81,-15.79 25.6,-37.62 25.6,-61.75 0,-24.13 -9.79,-45.94 -25.6,-61.75 -13.99,-14.03 -32.77,-23.29 -53.65,-25.21zm125.23 -351.86c27.46,-2.36 51.65,17.97 54,45.44 2.37,27.43 -17.95,51.61 -45.42,53.97l-106.54 9.37c-27.45,2.37 -51.61,-17.97 -53.97,-45.42 -2.39,-27.43 17.95,-51.61 45.42,-53.97l106.5 -9.39zm324.76 -260.5c27.55,0 49.9,22.32 49.9,49.88 0,27.55 -22.35,49.88 -49.9,49.88l-501.79 0c-27.55,0 -49.88,-22.33 -49.88,-49.88 0,-27.57 22.33,-49.88 49.88,-49.88l501.79 0z"/>
  </g>
 </g>
</svg>

</svg>