<?xml version="1.0" encoding="UTF-8"?>
<svg id="_Слой_1" data-name="Слой 1" xmlns="http://www.w3.org/2000/svg" viewBox="0 0 208.62 45.34">
  <defs>
    <style>
      .cls-1 {
        fill: #76bc21;
        fill-rule: evenodd;
        stroke-width: 0px;
      }
    </style>
  </defs>
  <path class="cls-1" d="M64.52,2.79c-.13-.39-.35-.77-.62-1.17-.77-1.08-1.73-1.63-2.88-1.63-.38,0-.79.06-1.22.18-.34.09-.68.22-1.02.38-1.32.65-1.57,1.23-2,2.55-.32,2.28.25,7.03,2.08,10.69.71,1.07,1.29,1.67,1.75,1.79.54-.19.42-.17,1.22-.77.82-.59,3.65-8.45,2.69-12.03Z"/>
  <path class="cls-1" d="M102.39,27.55c-.16-.18-.45-.42-.86-.72-.41-.29-.73-.62-.95-.97-.23-.36-.35-.86-.38-1.51-.26-5.96-.39-8.86-.39-8.69,0-1.02.07-2.42.19-4.2.12-1.79.26-2.92.38-3.4.11-.37.41-.8.92-1.29.5-.48.83-.83.99-1.02.15-.19.23-.51.23-.97,0-1.75-1.86-2.63-5.58-2.63-1.25,0-2.25.08-2.98.25-.74.17-1.31.43-1.74.79-.42.35-.82.91-1.23,1.66-.4.76-.8,1.5-1.2,2.25-.23.43-.67,1.38-1.33,2.85-.66,1.47-1.21,2.55-1.64,3.26-.42.7-.83,1.06-1.21,1.06-.52-.13-1.07-.71-1.69-1.76-.61-1.04-1.33-2.44-2.15-4.21-.82-1.77-1.37-2.88-1.63-3.33-.47-.84-.77-1.36-.9-1.57-.13-.21-.35-.42-.66-.63-.32-.21-.79-.37-1.43-.47-.63-.11-1.51-.16-2.63-.16-1.86,0-3.45.21-4.75.64-1.3.43-1.95,1.16-1.95,2.19,0,.46.14.83.42,1.09.29.26.7.55,1.22.87.54.31.86.58.95.79.4.84.59,2.36.59,4.54,0,2.63-.06,4.89-.17,6.79-.12,1.9-.28,3.92-.48,6.05-.07.74-.23,1.26-.47,1.55-.23.29-.57.5-.99.66-.42.16-.72.31-.91.48-.19.17-.29.49-.29.98,0,1.47,1.64,2.19,4.89,2.19,3.77,0,5.66-.78,5.66-2.36,0-.55-.28-.97-.85-1.25-.55-.28-.96-.57-1.23-.88-.27-.31-.4-1.08-.4-2.29,0-.11-.01-.5-.04-1.16-.03-.66-.04-1.21-.04-1.67,0-2.5.3-3.75.9-3.75.3,0,.55.16.74.47.19.32.4.73.62,1.24l2.25,5.19c.76,1.75,1.33,2.99,1.72,3.73.38.73.67,1.17.86,1.34.19.16.41.27.67.3.38,0,.77-.33,1.17-1.01.4-.68.86-1.66,1.38-2.95.53-1.29.84-2.05.94-2.26.4-.91.77-1.78,1.13-2.6.36-.82.73-1.51,1.11-2.08.38-.57.76-.86,1.13-.86.51,0,.77.98.77,2.95,0,.86-.05,1.78-.13,2.76-.08.98-.15,1.59-.21,1.83-.06.27-.17.49-.33.66-.16.18-.4.4-.74.69-.34.28-.58.54-.73.76-.15.22-.22.48-.22.79,0,.99.66,1.63,1.97,1.94,1.32.3,2.96.45,4.93.45s3.59-.16,4.97-.48c1.36-.32,2.06-1.01,2.06-2.07,0-.39-.09-.68-.26-.86Z"/>
  <path class="cls-1" d="M207.71,15.35c-.62-1.53-1.51-2.78-2.69-3.75-1.18-.96-2.58-1.45-4.19-1.45-.93,0-1.78.15-2.53.44-.76.3-1.48.66-2.16,1.08-.68.42-1.07.63-1.19.63-.29,0-.43-.27-.43-.84,0-.47-.06-.78-.2-.95-.13-.17-.43-.25-.88-.25-.77,0-1.77.13-2.99.39-1.21.25-2.42.59-3.63,1.03-1.22.44-2.22.95-3.03,1.54-.8.58-1.21,1.2-1.21,1.84s.15,1.13.46,1.4c.31.25.72.44,1.23.55.5.11.8.22.91.32.28.29.43,2.06.43,5.3v2.19c0,3.51-.18,5.64-.53,6.42-.19.4-.55.76-1.07,1.07-.53.31-.86.53-1.01.66-.15.13-.22.44-.22.95,0,.67.41,1.31,1.25,1.94.84.62,1.96,1.12,3.38,1.49,1.42.38,2.96.56,4.63.56,1.21,0,2.36-.17,3.43-.53,1.07-.35,1.62-1.01,1.62-1.99,0-.42-.09-.72-.26-.91-.17-.17-.46-.4-.88-.67-.42-.27-.73-.58-.95-.92-.21-.34-.31-.85-.31-1.53,0-.84.21-1.27.62-1.27.07,0,.37.1.91.31.53.19,1.04.36,1.53.5.5.12,1.01.19,1.55.19,1.35,0,2.61-.31,3.77-.94,1.16-.62,2.15-1.46,2.98-2.54.84-1.07,1.48-2.26,1.92-3.57.44-1.3.66-2.61.66-3.93v-.06c0-1.59-.31-3.16-.92-4.7ZM196.34,25.7c-.7,0-1.2-.13-1.51-.42-.31-.27-.47-.73-.47-1.37,0-2.42.05-4.18.16-5.27.12-1.08.3-1.78.55-2.1.25-.33.64-.48,1.14-.48.74,0,1.32.27,1.75.81.42.53.71,1.18.85,1.95.15.77.22,1.55.22,2.31,0,3.06-.91,4.58-2.71,4.58Z"/>
  <path class="cls-1" d="M177.92,11.6c-1.18-.96-2.58-1.45-4.18-1.45-.93,0-1.78.15-2.53.44-.76.3-1.48.66-2.16,1.08-.69.42-1.08.63-1.2.63-.29,0-.43-.27-.43-.84,0-.47-.07-.78-.21-.95-.13-.17-.43-.25-.89-.25-.77,0-1.76.13-2.97.39-1.22.25-2.44.59-3.64,1.03-1.21.44-2.23.95-3.03,1.54-.8.58-1.21,1.2-1.21,1.84s.15,1.13.46,1.4c.31.25.71.44,1.22.55.51.11.82.22.92.32.28.29.43,2.06.43,5.3v2.19c0,3.51-.18,5.64-.54,6.42-.19.4-.54.76-1.06,1.07-.53.31-.87.53-1.01.66-.15.13-.21.44-.21.95,0,.67.41,1.31,1.24,1.94.83.62,1.96,1.12,3.38,1.49,1.42.38,2.97.56,4.64.56,1.21,0,2.35-.17,3.43-.53,1.07-.35,1.61-1.01,1.61-1.99,0-.42-.08-.72-.25-.91-.17-.17-.46-.4-.88-.67-.42-.27-.74-.58-.95-.92-.21-.34-.32-.85-.32-1.53,0-.84.2-1.27.62-1.27.07,0,.38.1.91.31.54.19,1.05.36,1.54.5.49.12,1.01.19,1.54.19,1.35,0,2.61-.31,3.77-.94,1.15-.62,2.14-1.46,2.98-2.54.84-1.07,1.48-2.26,1.92-3.57.45-1.32.67-2.65.67-3.99,0-1.59-.31-3.16-.92-4.7-.62-1.53-1.51-2.78-2.69-3.75ZM169.23,25.7c-.69,0-1.2-.13-1.5-.42-.31-.27-.47-.73-.47-1.37,0-2.42.06-4.18.17-5.27.12-1.08.3-1.78.55-2.1.25-.33.63-.48,1.14-.48.74,0,1.32.27,1.74.81.43.53.71,1.18.86,1.95.15.77.22,1.55.22,2.31,0,3.06-.9,4.58-2.71,4.58Z"/>
  <path class="cls-1" d="M150.83,11.6c-1.18-.96-2.58-1.45-4.18-1.45-.94,0-1.79.15-2.54.44-.75.3-1.48.66-2.15,1.08-.69.42-1.08.63-1.2.63-.29,0-.42-.27-.42-.84,0-.47-.06-.78-.2-.95-.14-.17-.43-.25-.88-.25-.77,0-1.77.13-2.98.39-1.22.25-2.43.59-3.64,1.03-1.22.44-2.22.95-3.03,1.54-.81.58-1.21,1.2-1.21,1.84s.15,1.13.46,1.4c.3.25.71.44,1.22.55.5.11.8.22.91.32.28.29.42,2.06.42,5.3v2.19c0,3.51-.18,5.64-.54,6.42-.18.4-.53.76-1.06,1.07-.53.31-.86.53-1.01.66-.14.13-.22.44-.22.95,0,.67.41,1.31,1.25,1.94.84.62,1.97,1.12,3.38,1.49,1.43.38,2.97.56,4.63.56,1.21,0,2.35-.17,3.43-.53,1.07-.35,1.62-1.01,1.62-1.99,0-.42-.09-.72-.25-.91-.17-.17-.46-.4-.88-.67-.41-.27-.74-.58-.94-.92-.22-.34-.32-.85-.32-1.53,0-.84.21-1.27.63-1.27.07,0,.37.1.91.31.52.19,1.04.36,1.54.5.49.12,1,.19,1.54.19,1.35,0,2.61-.31,3.77-.94,1.16-.62,2.15-1.46,2.99-2.54.82-1.07,1.47-2.26,1.92-3.57.44-1.32.66-2.65.66-3.99,0-1.59-.3-3.16-.91-4.7-.62-1.53-1.51-2.78-2.69-3.75ZM142.14,25.7c-.69,0-1.2-.13-1.5-.42-.31-.27-.47-.73-.47-1.37,0-2.42.06-4.18.17-5.27.12-1.08.3-1.78.55-2.1.26-.33.64-.48,1.15-.48.73,0,1.32.27,1.74.81.42.53.7,1.18.85,1.95.15.77.22,1.55.22,2.31,0,3.06-.91,4.58-2.71,4.58Z"/>
  <path class="cls-1" d="M32.07,26.7c-.45-.13-.85-.33-1.19-.59-.36-.26-.66-.72-.96-1.4-.5-1.17-1.3-3.02-2.42-5.52-1.13-2.51-2.2-4.9-3.24-7.15-1.03-2.25-1.66-3.58-1.87-3.96-1.05-1.84-2.11-3.34-3.17-4.47-1.07-1.14-2.35-1.71-3.84-1.71-1.64,0-2.83.43-3.58,1.3-.75.86-1.12,2.03-1.12,3.53,0,.98-.13,2-.4,3.04-.27,1.03-.57,1.99-.91,2.85-.34.86-.83,2.03-1.47,3.51l-2.44,5.46c-1.02,2.25-1.77,3.67-2.25,4.27-.29.37-.78.71-1.46.99-.69.29-1.15.52-1.4.69-.23.17-.35.51-.36,1.05v.05c0,.49.14.9.4,1.22.26.33.83.59,1.71.8.88.21,2.2.31,3.94.31,3.82,0,5.73-.81,5.73-2.43,0-.48-.1-.81-.32-1-.21-.19-.53-.36-.96-.5-.43-.14-.73-.27-.92-.39-.18-.12-.27-.35-.27-.69,0-.45.12-1.04.37-1.77.25-.73.52-1.43.81-2.12.3-.67.65-1.45,1.05-2.31.41-.85.62-1.32.65-1.36.19-.54.5-1.14.91-1.83.41-.67.81-1.01,1.21-1.01.36,0,.69.19.96.56.25.38.56.89.91,1.55.2.36.79,1.73,1.74,4.16.95,2.42,1.43,3.77,1.43,4.06,0,.32-.09.54-.28.67-.18.14-.48.27-.88.43-.39.15-.69.33-.9.54-.21.21-.31.53-.31.96,0,.78.34,1.36,1.01,1.72.68.36,1.59.58,2.71.67,1.15.08,2.87.12,5.15.12,1.3,0,2.48-.06,3.53-.17,1.03-.1,1.95-.38,2.74-.78.78-.41,1.18-1.02,1.18-1.84,0-.52-.1-.86-.28-1.02-.19-.17-.5-.32-.95-.46Z"/>
  <path class="cls-1" d="M38.9,29.62c1.61.97,3.51,1.47,5.73,1.47,1.21,0,2.53-.24,3.93-.71,1.41-.47,2.6-1.12,3.57-1.92.97-.82,1.45-1.71,1.45-2.66,0-.43-.16-.86-.47-1.32-.31-.45-.67-.68-1.04-.68-.19,0-.58.18-1.17.54-.6.36-1.19.65-1.81.9-.61.24-1.33.36-2.18.36-.61,0-1.26-.18-1.95-.51-.68-.33-1.24-.79-1.7-1.36-.46-.56-.69-1.17-.69-1.79,0-.25.08-.41.22-.47.16-.06.43-.09.82-.09h8.42c.75,0,1.34-.2,1.77-.6.42-.4.63-1.2.63-2.39,0-.8-.19-1.67-.59-2.62-.39-.95-.97-1.84-1.75-2.69-.77-.85-1.75-1.55-2.97-2.09-1.21-.55-2.6-.82-4.18-.82-1.92,0-3.71.46-5.38,1.38-1.68.92-3.02,2.18-4.01,3.8-1,1.62-1.5,3.43-1.5,5.42,0,1.77.41,3.44,1.22,5.02.82,1.59,2.03,2.86,3.64,3.84ZM43.07,14.61c.47-.55,1.02-.82,1.63-.82.72,0,1.28.23,1.68.71.41.48.61,1.09.61,1.84,0,.49-.13.81-.38.96-.26.16-.62.23-1.09.23h-.82c-.11,0-.27,0-.49.02-.22,0-.38.01-.48.01-.9,0-1.37-.38-1.37-1.15,0-.65.24-1.26.7-1.81Z"/>
  <path class="cls-1" d="M126.28,11.19c-.88-.28-1.84-.42-2.86-.42-1.19,0-2.34.16-3.44.48-1.1.32-1.65.93-1.65,1.83,0,.29.05.52.15.69.1.17.25.36.45.6.2.23.36.47.48.72.11.25.17.57.17.97,0,.62-.2,1.38-.61,2.28-.4.9-.86,1.36-1.38,1.36-.22,0-.53-.25-.92-.76-.39-.51-.73-1.1-1.03-1.77-.3-.68-.44-1.24-.44-1.69,0-.22.03-.39.09-.51.06-.12.18-.32.34-.57.17-.26.29-.47.36-.64.07-.17.11-.36.11-.59,0-.97-.52-1.61-1.57-1.92-1.04-.31-2.19-.47-3.44-.47-2.53,0-4.46.15-5.79.44-1.33.3-2.19.65-2.58,1.07-.39.42-.59.88-.59,1.38,0,.4.1.71.31.93.21.22.54.44,1,.66.46.22.81.41,1.06.56.24.15.44.4.6.75l5.47,11.47c.83,1.7,1.25,2.89,1.25,3.55,0,.51-.13.96-.39,1.34-.26.39-.64.58-1.13.58-.34,0-.61-.24-.81-.71-.2-.47-.4-.98-.61-1.52-.21-.54-.52-1-.94-1.37-.42-.37-1.04-.55-1.87-.55-.98,0-1.81.35-2.47,1.06-.67.7-1,1.55-1,2.55,0,1.51.63,2.67,1.88,3.48,1.25.81,2.68,1.21,4.26,1.21,1.99,0,3.67-.47,5.04-1.4,1.38-.93,2.49-2.14,3.35-3.62.86-1.48,1.66-3.24,2.4-5.27l2.31-6.38c.76-2.14,1.44-3.68,2.03-4.61.29-.5.62-.86.98-1.1.36-.24.8-.46,1.31-.67.51-.21.87-.44,1.09-.68.22-.24.33-.62.33-1.15,0-.78-.44-1.3-1.32-1.58Z"/>
  <path class="cls-1" d="M3.49,38.68c.57,0,1.08.24,1.42.78l1.03-.59c-.44-.86-1.33-1.31-2.44-1.31-1.81,0-3.1,1.2-3.1,2.89s1.29,2.9,3.1,2.9c1.11,0,2-.48,2.44-1.32l-1.03-.59c-.34.54-.86.78-1.42.78-.99,0-1.74-.67-1.74-1.77s.75-1.77,1.74-1.77Z"/>
  <path class="cls-1" d="M9.5,37.56c-1.7,0-2.96,1.21-2.96,2.89s1.24,2.9,3.16,2.9c.99,0,1.79-.32,2.3-.92l-.72-.82c-.41.41-.91.61-1.55.61-1,0-1.69-.53-1.85-1.36h4.49c.01-.13.02-.29.02-.39,0-1.77-1.22-2.92-2.89-2.92ZM7.87,40c.13-.83.76-1.38,1.63-1.38s1.51.56,1.62,1.38h-3.25Z"/>
  <polygon class="cls-1" points="12.82 38.75 14.83 38.75 14.83 43.28 16.17 43.28 16.17 38.75 18.17 38.75 18.17 37.62 12.82 37.62 12.82 38.75"/>
  <path class="cls-1" d="M22.01,39.49h-1.53v-1.86h-1.34v5.66h2.68c1.56.02,2.45-.69,2.45-1.93s-.79-1.86-2.26-1.86ZM21.7,42.32h-1.22v-1.93h1.22c.79.02,1.21.3,1.21.94s-.43,1-1.21.99Z"/>
  <path class="cls-1" d="M31.82,40.34c.59-.23.96-.69.96-1.24,0-.93-1.07-1.56-2.54-1.56-.75,0-1.49.16-2.27.52l.34.97c.63-.28,1.23-.41,1.81-.41.8,0,1.29.25,1.29.67s-.4.65-1.07.65h-1.01v.89h1.11c.72,0,1.12.24,1.12.69,0,.49-.55.77-1.44.77-.71,0-1.44-.18-1.99-.49l-.39.98c.69.38,1.56.59,2.44.59,1.6,0,2.74-.71,2.74-1.76,0-.62-.42-1.08-1.12-1.28Z"/>
  <path class="cls-1" d="M36.87,37.56c-1.76,0-3.04,1.2-3.04,2.89s1.29,2.9,3.04,2.9,3.05-1.21,3.05-2.9-1.27-2.89-3.05-2.89ZM36.87,42.22c-.96,0-1.69-.69-1.69-1.77s.73-1.77,1.69-1.77,1.7.69,1.7,1.77-.73,1.77-1.7,1.77Z"/>
  <path class="cls-1" d="M43.79,37.56c-1.76,0-3.04,1.2-3.04,2.89s1.29,2.9,3.04,2.9,3.05-1.21,3.05-2.9-1.27-2.89-3.05-2.89ZM43.79,42.22c-.96,0-1.69-.69-1.69-1.77s.73-1.77,1.69-1.77,1.7.69,1.7,1.77-.73,1.77-1.7,1.77Z"/>
  <polygon class="cls-1" points="53.73 37.62 51.59 41.16 49.56 37.62 48.16 37.62 48.16 43.28 49.38 43.28 49.38 39.52 51.27 42.69 51.85 42.69 53.78 39.53 53.78 43.28 54.99 43.28 54.98 37.62 53.73 37.62"/>
  <path class="cls-1" d="M58.92,37.56c-.92,0-1.81.23-2.42.7l.52.96c.43-.35,1.09-.56,1.74-.56.95,0,1.42.46,1.42,1.23v.08h-1.48c-1.74,0-2.38.74-2.38,1.68s.82,1.69,2.13,1.69c.86,0,1.48-.28,1.8-.76v.69h1.26v-3.32c0-1.63-.95-2.4-2.6-2.4ZM60.18,41.51c-.22.58-.79.88-1.45.88-.69,0-1.09-.31-1.09-.78,0-.41.25-.75,1.16-.75h1.38v.66Z"/>
  <path class="cls-1" d="M66.35,37.56c-.78,0-1.45.27-1.9.8v-.74h-1.27v7.71h1.34v-2.74c.46.52,1.1.76,1.83.76,1.67,0,2.9-1.14,2.9-2.9s-1.23-2.89-2.9-2.89ZM66.2,42.22c-.96,0-1.7-.69-1.7-1.77s.74-1.77,1.7-1.77,1.69.69,1.69,1.77-.73,1.77-1.69,1.77Z"/>
  <polygon class="cls-1" points="76.11 37.62 74.68 37.62 72.98 39.91 71.91 39.91 71.91 37.62 70.57 37.62 70.57 43.28 71.91 43.28 71.91 41.01 72.95 41.01 74.68 43.28 76.25 43.28 74.03 40.35 76.11 37.62"/>
  <path class="cls-1" d="M79.46,37.56c-1.7,0-2.96,1.21-2.96,2.89s1.24,2.9,3.16,2.9c.99,0,1.79-.32,2.3-.92l-.72-.82c-.41.41-.91.61-1.55.61-1,0-1.69-.53-1.85-1.36h4.49c.01-.13.02-.29.02-.39,0-1.77-1.22-2.92-2.89-2.92ZM77.83,40c.13-.83.76-1.38,1.63-1.38s1.51.56,1.62,1.38h-3.25Z"/>
  <polygon class="cls-1" points="82.78 38.75 84.79 38.75 84.79 43.28 86.13 43.28 86.13 38.75 88.13 38.75 88.13 37.62 82.78 37.62 82.78 38.75"/>
  <path class="cls-1" d="M91.41,37.56c-1.76,0-3.04,1.2-3.04,2.89s1.29,2.9,3.04,2.9,3.05-1.21,3.05-2.9-1.27-2.89-3.05-2.89ZM91.41,42.22c-.96,0-1.69-.69-1.69-1.77s.73-1.77,1.69-1.77,1.7.69,1.7,1.77-.73,1.77-1.7,1.77Z"/>
  <path class="cls-1" d="M99.92,40.34c.55-.23.88-.67.88-1.25,0-.93-.84-1.46-2.23-1.46h-2.8v5.66h2.91c1.54,0,2.29-.59,2.29-1.59,0-.69-.35-1.14-1.06-1.36ZM97.05,38.59h1.4c.69,0,1.04.22,1.04.69s-.35.71-1.04.71h-1.4v-1.4ZM98.58,42.32h-1.53v-1.45h1.57c.73,0,1.06.24,1.06.74s-.39.71-1.1.71Z"/>
</svg>