<svg xmlns="http://www.w3.org/2000/svg" height="450" viewBox="0 0 464 450" width="464"><style>.gray{fill:#c0c0c0}</style>

    <svg height="15" viewBox="0 0 15 15" width="15" x="0" y="80"><path fill="#C3C3C3" d="M7.47 4.095a3.48 3.48 0 1 0 .001 6.959 3.48 3.48 0 0 0-.001-6.959zm.024 4.952a1.501 1.501 0 1 1 0-3.002 1.501 1.501 0 0 1 0 3.002zm2.519-9.086H4.998A5.001 5.001 0 0 0-.003 4.963v5.015a5.001 5.001 0 0 0 5.001 5.002h5.015a5 5 0 0 0 5.001-5.002V4.963a5.001 5.001 0 0 0-5.001-5.002zm2.971 10.075c0 1.656-1.344 2.96-3 2.96H5.003c-1.657 0-3-1.304-3-2.96v-4.98c0-1.657 1.343-3.04 3-3.04h4.981c1.656 0 3 1.383 3 3.04v4.98zm-2.458-7.351a.96.96 0 1 0 0 1.92.96.96 0 0 0 0-1.92z" id="Ellipse_10"/></svg>

    <svg height="11" viewBox="246 251 20 11" width="20" x="0" y="100"><path fill="#C0C0C0" d="M263.212 257.491c.664.629 1.365 1.222 1.96 1.915.263.308.512.625.702.982.27.508.024 1.067-.444 1.098l-2.913-.002c-.751.062-1.352-.233-1.855-.732-.403-.399-.777-.824-1.165-1.236a2.696 2.696 0 0 0-.523-.453c-.398-.251-.743-.175-.97.229-.232.41-.284.864-.308 1.321-.031.667-.238.843-.927.872-1.474.068-2.872-.148-4.17-.87-1.145-.637-2.032-1.536-2.805-2.554-1.504-1.98-2.656-4.158-3.692-6.396-.233-.504-.062-.775.51-.785.95-.018 1.901-.017 2.853-.001.386.005.642.221.791.575a17.072 17.072 0 0 0 1.934 3.482c.21.289.425.577.73.78.338.225.596.15.754-.215.101-.232.146-.482.167-.73.076-.855.085-1.708-.047-2.56-.081-.532-.389-.876-.935-.977-.278-.051-.237-.152-.102-.307.234-.267.455-.432.894-.432h3.292c.519.1.633.326.705.833l.002 3.555c-.005.196.102.779.465.909.292.092.483-.134.658-.313.787-.813 1.352-1.774 1.854-2.77.223-.438.414-.892.601-1.346.138-.337.354-.503.745-.495l3.169.002c.094 0 .188.001.28.017.533.088.68.312.516.818-.261.795-.766 1.458-1.261 2.124-.528.71-1.094 1.397-1.617 2.112-.483.654-.446.983.152 1.55z"/></svg>

    <svg height="15" viewBox="253 249 7 15" width="7" x="0" y="118"><path fill="#C0C0C0" d="M258.993 248.5h-1.568c-1.2 0-2.062.284-2.586.851s-.786 1.403-.786 2.508v1.053a.505.505 0 0 1-.506.503h-.542a.506.506 0 0 0-.506.504v1.577c0 .278.227.504.506.504h.542c.279 0 .506.226.506.503v6.493c0 .278.226.504.505.504h2.105a.506.506 0 0 0 .506-.504v-6.493c0-.278.227-.503.506-.503h1.062c.279 0 .53-.224.56-.501l.168-1.583a.445.445 0 0 0-.453-.501h-1.337a.505.505 0 0 1-.506-.503v-.789c0-.194.009-.344.027-.451a.916.916 0 0 1 .123-.314.508.508 0 0 1 .311-.214c.144-.04.334-.059.571-.059h.792a.506.506 0 0 0 .506-.504v-1.577a.505.505 0 0 0-.506-.504z"/></svg>

    <svg height="16" viewBox="0 0 17 16" width="16.246" x="0" y="136"><path fill="#C0C0C0" d="M10.807 1.83a6.27 6.27 0 0 0-8.855 0 6.272 6.272 0 0 0 0 8.854c2.174 2.175 5.559 2.406 8 .709.052.242.168.476.357.664l3.555 3.556a1.324 1.324 0 0 0 1.871-1.871l-3.556-3.556a1.303 1.303 0 0 0-.663-.356c1.699-2.44 1.465-5.824-.709-8zM9.684 9.562a4.679 4.679 0 0 1-6.609 0 4.68 4.68 0 0 1 0-6.609 4.68 4.68 0 0 1 6.609 0 4.675 4.675 0 0 1 0 6.609z"/></svg>

    <svg height="7" viewBox="0 0 13 7" width="13" x="20" y="80"><path fill="#f27020" d="M12.739 5.542L7.158.252A.931.931 0 0 0 6.516 0a.932.932 0 0 0-.643.252L.292 5.542a.83.83 0 0 0 0 1.218.945.945 0 0 0 1.285 0l4.938-4.68 4.938 4.68a.943.943 0 0 0 1.285 0 .829.829 0 0 0 .001-1.218z" id="Forma_1"/></svg>

    <svg height="16" viewBox="0 0 17 16" width="16.246" x="20" y="136"><path fill="#F16A17" d="M10.807 1.83a6.27 6.27 0 0 0-8.855 0 6.272 6.272 0 0 0 0 8.854c2.174 2.175 5.559 2.406 8 .709.052.242.168.476.357.664l3.555 3.556a1.324 1.324 0 0 0 1.871-1.871l-3.556-3.556a1.303 1.303 0 0 0-.663-.356c1.699-2.44 1.465-5.824-.709-8zM9.684 9.562a4.679 4.679 0 0 1-6.609 0 4.68 4.68 0 0 1 0-6.609 4.68 4.68 0 0 1 6.609 0 4.675 4.675 0 0 1 0 6.609z"/></svg>

    <svg height="24" viewBox="244 244 24 24" width="24" x="40" y="80"><path fill="#FFF" d="M263.5 260.5H262a3 3 0 0 1-3-3v-.964a7.581 7.581 0 0 0 1.436-2.708c.03-.166.19-.248.297-.362.575-.574.688-1.543.257-2.233-.059-.104-.164-.195-.158-.325 0-.879.005-1.761-.001-2.64-.023-1.061-.327-2.165-1.071-2.951-.601-.635-1.425-1.013-2.276-1.174a7.541 7.541 0 0 0-3.265.076c-.923.233-1.79.773-2.326 1.575-.475.696-.683 1.542-.718 2.376-.013.895-.003 1.792-.006 2.689.021.179-.132.301-.201.45-.406.736-.227 1.739.425 2.274.166.114.197.322.256.502a7.274 7.274 0 0 0 1.352 2.42v.996a3 3 0 0 1-3 3h-1.5s-2.719.75-4.5 4.5v1.5a1.5 1.5 0 0 0 1.5 1.5h21a1.5 1.5 0 0 0 1.5-1.5V265c-1.782-3.75-4.501-4.5-4.501-4.5z"/></svg>

    <svg height="30.352" viewBox="0 0 30 31" width="30" x="67" y="80"><path fill="#FFF" d="M20.225 6.024S18.438 1.443 18.026.481c-.412-.961-1.648-.182-1.648-.182s-7.24 2.839-8.385 3.435c-1.146.595-.367 2.29-.367 2.29h12.599zm2.016-.045h5.727v-.87c0-1.1-2.016-1.191-2.795-1.374-.778-.184-1.648-1.33-2.382-1.33-.732 0-.55 1.146-.55 1.146v2.428zm3.493 16.119c.94 0 1.085-.746 1.085-.746S29.715 9.59 29.967 8.467c.254-1.122-1.085-.978-1.085-.978H6.478c-.615 0-.904-.76-.904-.76s-.542-1.591-.905-2.786c-.361-1.194-1.556-1.049-1.556-1.049H.543S0 2.967 0 3.835s.58 1.013.58 1.013h2.425l5.212 15.636c-1.944 0-2.827 1.854-2.827 2.28v2.172c0 2.642 2.899 2.746 2.899 2.746h.117a3.434 3.434 0 0 0 3.343 2.67 3.434 3.434 0 0 0 3.344-2.67h4.447c.348 1.526 1.707 2.67 3.342 2.67s2.996-1.144 3.345-2.67h.593c.868 0 .797-.688.797-.688v.046c0-.76-.689-.831-.689-.831h-.682a3.434 3.434 0 1 0-6.723 0h-4.411a3.436 3.436 0 0 0-6.722-.001c-.9-.011-1.554-1.743-1.554-1.743v-.774c0-1.847 2.64-1.665 2.154-1.606-.001-.002 15.802.013 16.744.013zm-2.852 3.214a1.557 1.557 0 1 1 .001 3.115 1.557 1.557 0 0 1-.001-3.115zm-11.133 0a1.557 1.557 0 1 1 0 3.117 1.559 1.559 0 0 1 0-3.117zm1.512-4.695h-2.908l-.985-2.911h3.894v2.911zm12.279.022h-3.208v-2.886h3.895l-.687 2.886zM22.288 8.91h6.001l-.642 2.887h-5.359V8.91zm0 4.445h4.9l-.458 2.84h-4.442v-2.84zM14.911 8.91h5.772v2.887h-5.772V8.91zm0 4.399h5.772v2.931h-5.772v-2.931zm-.046 4.352h5.865v2.978h-5.865v-2.978zM6.298 8.956h6.963v2.886H7.443L6.298 8.956zm2.656 7.192l-.961-2.839h5.223v2.839H8.954z"/></svg>

    <svg height="27.464" viewBox="0 0 30 28" width="30" x="99" y="80"><path fill="#FFF" d="M25.734 19.211c.94 0 1.085-.748 1.085-.748s2.896-11.762 3.149-12.884c.253-1.122-1.086-.977-1.086-.977H6.478c-.615 0-.905-.76-.905-.76s-.542-1.592-.904-2.787C4.307-.139 3.113.005 3.113.005H.543S0 .077 0 .946c0 .868.579 1.013.579 1.013h2.425l5.212 15.635c-1.943 0-2.827 1.854-2.827 2.28v2.172c0 2.642 2.899 2.747 2.899 2.747h.118a3.434 3.434 0 0 0 3.343 2.67 3.433 3.433 0 0 0 3.343-2.67h4.446a3.434 3.434 0 0 0 3.343 2.67 3.434 3.434 0 0 0 3.344-2.67h.594c.869 0 .796-.688.796-.688v.046a.792.792 0 0 0-.688-.833h-.684a3.437 3.437 0 0 0-6.723 0h-4.41a3.436 3.436 0 0 0-3.361-2.728 3.436 3.436 0 0 0-3.361 2.726c-.9-.011-1.555-1.741-1.555-1.741V20.8c0-1.848 2.64-1.665 2.155-1.607 0 0 15.804.018 16.746.018zm-2.853 3.213a1.558 1.558 0 1 1 0 3.116 1.558 1.558 0 0 1 0-3.116zm-11.132 0a1.558 1.558 0 1 1 0 3.116 1.558 1.558 0 0 1 0-3.116zm1.512-4.695h-2.909l-.985-2.909h3.894v2.909zm12.278.022h-3.207v-2.887h3.895l-.688 2.887zM22.287 6.022h6.001l-.642 2.886h-5.359V6.022zm0 4.444h4.901l-.458 2.841h-4.443v-2.841zM14.91 6.022h5.773v2.886H14.91V6.022zm0 4.399h5.773v2.932H14.91v-2.932zm-.046 4.352h5.864v2.978h-5.864v-2.978zM6.297 6.068h6.964v2.886H7.442L6.297 6.068zm2.657 7.193l-.962-2.84h5.223v2.84H8.954z" id="Shape_1_копия"/></svg>

    <svg height="31" viewBox="0 0 31 31" width="31" x="165" y="0"><path fill-rule="evenodd" clip-rule="evenodd" fill="#E44B26" d="M15.532.925c8.05 0 14.575 6.525 14.575 14.575s-6.525 14.575-14.575 14.575S.957 23.55.957 15.5 7.482.925 15.532.925z"/><path fill="#FFF" d="M13.045 13.501a1.157 1.157 0 1 0-2.314.002 1.157 1.157 0 0 0 2.314-.002zm6.196 3.541a1.157 1.157 0 1 0-.002 2.314 1.157 1.157 0 0 0 .002-2.314zm6.215-.043l-.314-.429a1.352 1.352 0 0 1-.013-1.575l.306-.434a1.351 1.351 0 0 0-.467-1.97l-.467-.25a1.344 1.344 0 0 1-.692-1.414l.089-.522a1.348 1.348 0 0 0-1.273-1.57l-.531-.021a1.354 1.354 0 0 1-1.24-.972l-.148-.51a1.344 1.344 0 0 0-1.83-.861l-.488.208c-.53.229-1.15.093-1.537-.34l-.352-.395a1.345 1.345 0 0 0-2.021.017l-.351.399a1.35 1.35 0 0 1-1.532.36l-.493-.204a1.352 1.352 0 0 0-1.817.892l-.14.514c-.153.56-.646.959-1.224.989l-.53.029a1.35 1.35 0 0 0-1.249 1.593l.099.522a1.348 1.348 0 0 1-.671 1.422l-.463.26a1.348 1.348 0 0 0-.434 1.974l.314.429c.34.467.348 1.1.013 1.574l-.306.434a1.351 1.351 0 0 0 .467 1.97l.467.251c.51.271.79.84.692 1.413l-.089.522a1.347 1.347 0 0 0 1.273 1.57l.531.021a1.354 1.354 0 0 1 1.24.973l.148.51a1.345 1.345 0 0 0 1.83.861l.488-.208a1.345 1.345 0 0 1 1.537.34l.353.395c.543.603 1.49.599 2.021-.017l.349-.399a1.35 1.35 0 0 1 1.532-.36l.493.203a1.35 1.35 0 0 0 1.817-.891l.14-.515c.153-.56.646-.959 1.224-.989l.53-.029a1.347 1.347 0 0 0 1.248-1.592l-.097-.522a1.347 1.347 0 0 1 .67-1.423l.463-.258c.71-.391.915-1.317.435-1.975zM9.09 13.501a2.79 2.79 0 0 1 2.792-2.791c1.543 0 2.791 1.248 2.791 2.791s-1.248 2.792-2.791 2.792a2.793 2.793 0 0 1-2.792-2.792zm3.331 7.199a.681.681 0 0 1-1.05-.867l7.325-8.822a.682.682 0 0 1 1.05.868L12.421 20.7zm6.82.289a2.789 2.789 0 0 1-2.792-2.791 2.79 2.79 0 0 1 2.792-2.791 2.789 2.789 0 0 1 2.791 2.791 2.788 2.788 0 0 1-2.791 2.791z"/></svg>

    <svg height="25.293" viewBox="0 0 25 26" width="25" x="70" y="115"><path fill="#FFF" d="M16.854 5.02S15.365 1.203 15.022.4c-.344-.801-1.374-.152-1.374-.152S7.615 2.615 6.661 3.112c-.955.496-.306 1.908-.306 1.908h10.499zm1.68-.038h4.772v-.725c0-.917-1.68-.993-2.329-1.145-.648-.153-1.374-1.108-1.985-1.108-.61 0-.458.955-.458.955v2.023zm2.911 13.433c.784 0 .904-.622.904-.622s2.413-9.802 2.624-10.737c.211-.935-.904-.814-.904-.814H5.399c-.512 0-.754-.635-.754-.635s-.452-1.326-.754-2.321c-.301-.995-1.297-.875-1.297-.875H.453S0 2.472 0 3.195s.483.845.483.845h2.021l4.344 13.03c-1.62 0-2.356 1.545-2.356 1.9v1.81c0 2.202 2.417 2.289 2.417 2.289h.097a2.862 2.862 0 0 0 2.786 2.225 2.86 2.86 0 0 0 2.787-2.225h3.706c.29 1.272 1.423 2.225 2.785 2.225s2.496-.952 2.787-2.225h.494c.724 0 .664-.573.664-.573v.038c0-.633-.574-.692-.574-.692h-.571a2.862 2.862 0 0 0-5.602 0h-3.676a2.863 2.863 0 0 0-5.603-.002c-.75-.009-1.295-1.452-1.295-1.452v-.646c0-1.539 2.2-1.388 1.795-1.339.002-.001 13.171.012 13.956.012zm-2.377 2.679a1.298 1.298 0 1 1 0 2.598 1.298 1.298 0 0 1 0-2.598zm-9.277 0a1.298 1.298 0 1 1 0 2.596 1.298 1.298 0 0 1 0-2.596zm1.26-3.913H8.627l-.821-2.426h3.245v2.426zm10.232.018H18.61v-2.405h3.245l-.572 2.405zm-2.71-9.774h5.001l-.534 2.406h-4.467V7.425zm0 3.704h4.084l-.382 2.367h-3.702v-2.367zm-6.147-3.704h4.811V9.83h-4.811V7.425zm0 3.666h4.811v2.442h-4.811v-2.442zm-.038 3.627h4.888v2.481h-4.888v-2.481zm-7.14-7.255h5.803v2.405H6.203l-.955-2.405zm2.214 5.994l-.801-2.366h4.352v2.366H7.462z"/></svg>

    <svg height="23.27" viewBox="0 0 23 24" width="23" x="45" y="115"><path fill="#F27020" d="M15.505 4.618s-1.37-3.512-1.686-4.25c-.316-.737-1.265-.14-1.265-.14s-5.55 2.177-6.428 2.634c-.877.457-.28 1.756-.28 1.756h9.659zm4.224 12.324c.722 0 .832-.573.832-.573s2.22-9.018 2.414-9.878-.832-.749-.832-.749H4.967c-.471 0-.694-.583-.694-.583s-.416-1.221-.693-2.137c-.278-.915-1.194-.804-1.194-.804H.416S0 2.274 0 2.94s.444.776.444.776h1.859l3.996 11.988c-1.49 0-2.167 1.421-2.167 1.748v1.665c0 2.025 2.223 2.105 2.223 2.105h.089a2.633 2.633 0 0 0 2.563 2.047 2.631 2.631 0 0 0 2.563-2.047h3.409c.268 1.171 1.31 2.047 2.562 2.047s2.296-.876 2.563-2.047h.455c.666 0 .61-.527.61-.527v.035c0-.582-.527-.638-.527-.638h-.522a2.633 2.633 0 0 0-5.153 0h-3.382a2.634 2.634 0 0 0-5.154-.002c-.69-.009-1.191-1.335-1.191-1.335v-.595c0-1.416 2.023-1.276 1.652-1.231-.001.001 12.115.013 12.837.013zm-2.187 2.464a1.193 1.193 0 1 1 .001 2.387 1.193 1.193 0 0 1-.001-2.387zm-8.535 0a1.193 1.193 0 1 1 .001 2.387 1.193 1.193 0 0 1-.001-2.387zm1.16-3.6h-2.23l-.755-2.23h2.985v2.23zm9.413.017h-2.458V13.61h2.985l-.527 2.213zm-2.494-8.992h4.601l-.491 2.213h-4.109V6.831zm0 3.407h3.758l-.352 2.178h-3.406v-2.178zm-5.655-3.407h4.426v2.213h-4.426V6.831zm0 3.372h4.426v2.248h-4.426v-2.248zm-.035 3.337h4.496v2.283h-4.496V13.54zM4.828 6.866h5.339v2.213h-4.46l-.879-2.213zm2.037 5.515l-.737-2.178h4.004v2.178H6.865zm10.186-7.798h4.39v-.667c0-.843-1.545-.913-2.142-1.054-.598-.141-1.265-1.019-1.827-1.019s-.421.878-.421.878v1.862z"/></svg>

    <svg height="31" viewBox="0 0 36 31" width="36" x="100" y="115"><path fill="#F27020" d="M33.171 7.986H28.8l1.827-.949s.341 0 .341-.633-.292-1.85-1.412-3.603C28.436 1.049 27.755.075 26.782.075S25.32-.021 24.25.806c-1.071.828-3.651 3.262-3.651 3.262s3.407-.778 4.479.146c.901.778 1.758 2.076.182 3.772h-4.653V5.583a.688.688 0 0 0-.688-.688h-2.763a.689.689 0 0 0-.688.688v2.403h-5.293c-1.577-1.697-.72-2.994.182-3.772 1.071-.925 4.479-.146 4.479-.146s-2.58-2.434-3.651-3.262C11.114-.021 10.627.077 9.653.077c-.973 0-1.655.974-2.774 2.726-1.12 1.753-1.412 2.97-1.412 3.603s.341.633.341.633l1.827.949H2.652c-1.843 0-2.673.772-2.673 2.623v17.82c0 1.845.874 2.572 2.724 2.572h30.57c1.844 0 2.725-.67 2.725-2.521V10.456c0-1.845-.983-2.47-2.827-2.47zm.842 20.464c0 .287-.286.567-.566.567l-30.889-.026c-.287 0-.566-.287-.566-.567V10.45a.56.56 0 0 1 .566-.566l30.888.026c.286 0 .566.287.566.567V28.45z" id="Rounded_Rectangle_28_copy"/></svg>

    <svg height="21" viewBox="0 0 21 21" width="21" x="0" y="156"><path fill="#B3B3B3" d="M10.451 5.779a4.866 4.866 0 1 0 0 9.731 4.866 4.866 0 0 0 0-9.731zm.032 6.925a2.099 2.099 0 1 1 0-4.197 2.099 2.099 0 0 1 0 4.197zM14.007 0H6.993A6.993 6.993 0 0 0 0 6.993v7.014A6.993 6.993 0 0 0 6.993 21h7.014A6.993 6.993 0 0 0 21 14.007V6.993A6.993 6.993 0 0 0 14.007 0zm4.155 14.087c0 2.314-1.88 4.139-4.196 4.139H7c-2.317 0-4.195-1.824-4.195-4.139V7.125c0-2.319 1.878-4.252 4.195-4.252h6.966c2.316 0 4.196 1.933 4.196 4.252v6.962zM14.723 3.81a1.342 1.342 0 1 0 .002 2.684 1.342 1.342 0 0 0-.002-2.684z" id="Ellipse_10"/></svg>

    <svg height="16" viewBox="0 0 28 16" width="28" x="0" y="183"><g id="XMLID_1_"><path id="XMLID_807_" fill="#4680C2" d="M24.096 10.095c.929.914 1.911 1.776 2.743 2.785.369.447.717.909.983 1.429.379.738.034 1.551-.622 1.597l-4.077-.003c-1.053.09-1.894-.34-2.598-1.065-.564-.579-1.088-1.198-1.631-1.798-.223-.244-.454-.478-.731-.659-.558-.363-1.042-.253-1.359.334-.325.597-.397 1.257-.432 1.922-.042.968-.332 1.226-1.296 1.267-2.064.1-4.022-.215-5.838-1.265-1.604-.926-2.847-2.233-3.928-3.715C3.205 8.043 1.593 4.875.141 1.621-.184.888.055.495.855.479 2.186.452 3.518.455 4.85.478c.541.007.899.321 1.107.837.722 1.788 1.602 3.487 2.707 5.063.295.42.596.841 1.022 1.135.474.327.835.218 1.056-.313a3.4 3.4 0 0 0 .234-1.061c.107-1.244.119-2.486-.065-3.724-.114-.772-.545-1.274-1.309-1.42-.39-.074-.332-.222-.144-.448.327-.388.637-.628 1.251-.628h4.61c.726.146.886.473.987 1.211l.003 5.17c-.009.286.142 1.134.65 1.322.407.134.676-.194.922-.456 1.102-1.182 1.892-2.58 2.595-4.028.312-.636.579-1.298.842-1.957.193-.491.495-.733 1.042-.72l4.438.003c.132 0 .263.001.392.024.746.127.951.454.722 1.19-.365 1.156-1.072 2.121-1.766 3.089-.739 1.032-1.53 2.032-2.263 3.072-.676.953-.624 1.431.213 2.256z"/></g></svg>

    <svg height="23" viewBox="0 0 11 23" width="11" x="0" y="205"><path fill="#B3B3B3" d="M10.205 0H7.74C5.854 0 4.501.436 3.677 1.306c-.824.869-1.235 2.15-1.235 3.845v1.614a.784.784 0 0 1-.795.771H.795A.786.786 0 0 0 0 8.309v2.418c0 .426.357.773.795.773h.852c.439 0 .795.347.795.771v9.956a.784.784 0 0 0 .794.773h3.307a.786.786 0 0 0 .795-.772v-9.956c0-.427.357-.771.796-.771h1.669c.438 0 .834-.344.88-.768l.264-2.427c.046-.425-.273-.768-.712-.768H8.134a.785.785 0 0 1-.796-.771v-1.21c0-.298.014-.527.043-.691a1.4 1.4 0 0 1 .192-.485c.101-.157.265-.267.489-.326.226-.063.525-.092.898-.092h1.244A.784.784 0 0 0 11 3.191V.772A.783.783 0 0 0 10.205 0z"/></svg>

    <svg height="22" viewBox="0 0 13 22" width="13" x="25" y="110"><path fill="#FFF" d="M10.604.021L2.352 0A2.37 2.37 0 0 0-.012 2.364v17.271A2.371 2.371 0 0 0 2.352 22l8.251-.053a2.37 2.37 0 0 0 2.364-2.364V2.312C12.968 1.01 11.903.021 10.604.021zM5.877 1.204l1.308.01a.286.286 0 0 1 0 .572l-1.308-.01a.286.286 0 1 1 0-.572zm.613 20.021a1.183 1.183 0 1 1 0-2.366 1.183 1.183 0 0 1 0 2.366zm5.497-3.21L.969 17.994V2.971l11.019-.017v15.061z"/></svg>

    <svg height="14" viewBox="0 0 14 14" width="14" x="25" y="156"><path fill="#f16a17" d="M7.818 6.944l5.668-5.669c.313-.313.525-.557.212-.869-.313-.313-.714-.208-1.028.105l-5.668 5.67L1.333.512C1.02.198.672.04.358.354s-.102.608.212.921l5.669 5.669-5.88 5.88c-.313.313-.419.714-.106 1.027.156.156.15-.029.355-.029a.795.795 0 0 0 .567-.235l5.88-5.88 5.668 5.669c.157.156.362.234.567.234s.198.134.354-.023c.314-.313.155-.661-.158-.975L7.818 6.944z" id="Forma_1"/></svg>

    <svg height="14" viewBox="0 0 14 14" width="14" x="45" y="156"><path fill="#555" d="M7.818 6.944l5.668-5.669c.313-.313.525-.557.212-.869-.313-.313-.714-.208-1.028.105l-5.668 5.67L1.333.512C1.02.198.672.04.358.354s-.102.608.212.921l5.669 5.669-5.88 5.88c-.313.313-.419.714-.106 1.027.156.156.15-.029.355-.029a.795.795 0 0 0 .567-.235l5.88-5.88 5.668 5.669c.157.156.362.234.567.234s.198.134.354-.023c.314-.313.155-.661-.158-.975L7.818 6.944z" id="Forma_1"/></svg>

    <svg height="21" viewBox="0 0 21 21" width="21" x="63" y="150"><path d="M12.391 10.578l8.307-8.19a1.29 1.29 0 0 0 0-1.842 1.332 1.332 0 0 0-1.868 0l-8.306 8.19L2.217.546a1.332 1.332 0 0 0-1.868 0 1.29 1.29 0 0 0 0 1.842l8.307 8.19-8.307 8.19a1.29 1.29 0 0 0 0 1.843c.258.254.596.381.934.381.337 0 .676-.127.934-.381l8.307-8.191 8.306 8.191c.259.254.597.381.935.381.337 0 .676-.127.934-.381a1.29 1.29 0 0 0 0-1.843l-8.308-8.19z"/></svg>

    <svg height="7" viewBox="0 0 13 7" width="13" x="90" y="150"><path d="M12.818.218a.749.749 0 0 0-1.057 0L6.519 5.269 1.258.218A.749.749 0 0 0 .201 1.277l5.771 5.562a.737.737 0 0 0 .529.218.76.76 0 0 0 .528-.219L12.8 1.276a.733.733 0 0 0 .018-1.058z" id="Forma_1"/></svg>

    <svg height="13.053" viewBox="0 0 19 14" width="18.62" x="33" y="175"><g fill="#f27020"><path d="M9.181 4.276a10.065 10.065 0 0 0-8.155 4.082 9.715 9.715 0 0 0 8.185 4.695 9.877 9.877 0 0 0 8.24-4.688 10.398 10.398 0 0 0-8.27-4.089zm.154 7.369a8.555 8.555 0 0 1-6.876-3.297s2.756-2.995 6.683-2.995c3.928 0 6.807 3.065 6.807 3.065a7.818 7.818 0 0 1-6.614 3.227z"/><path d="M18.251 3.652A12.148 12.148 0 0 0 9.319.003C4.007.003.195 3.876.195 3.876a.528.528 0 0 0-.076.744l.022.025a.664.664 0 0 0 .84-.069s3.896-3.242 8.347-3.242c3.017 0 5.923 1.132 8.146 3.172.256.204.586.29.908.238.369-.161.293-.515-.131-1.092z"/></g></svg>

    <svg height="13.053" viewBox="1 0 19 14" width="18.62" x="53" y="175"><g fill="#f27020"><path d="M9.511 4.276a10.065 10.065 0 0 0-8.155 4.082 9.714 9.714 0 0 0 8.185 4.694 9.875 9.875 0 0 0 8.24-4.688 10.4 10.4 0 0 0-8.27-4.088zm.154 7.369a8.558 8.558 0 0 1-6.876-3.297s2.756-2.995 6.683-2.995c3.928 0 6.807 3.064 6.807 3.064a7.815 7.815 0 0 1-6.614 3.228z"/><path d="M18.582 3.652A12.148 12.148 0 0 0 9.65.003C4.338.003.526 3.876.526 3.876a.527.527 0 0 0-.055.769c.261.181.612.15.84-.069 0 0 3.896-3.242 8.347-3.242 3.017 0 5.923 1.132 8.146 3.172.256.204.586.29.908.238.37-.161.293-.515-.13-1.092z"/></g><path fill="#f27020" d="M10.908 11.644c.622-.504 1.909-1.752 1.909-3.438a3.774 3.774 0 0 0-.776-2.46 8.283 8.283 0 0 0-2.49-.402c-.808 0-1.562.13-2.258.33a3.782 3.782 0 0 0-.83 2.533c0 1.622 1.192 2.838 1.836 3.377.476.071.957.12 1.445.112.393.017.781-.009 1.164-.052zM9.621 9.87a1.546 1.546 0 0 1-1.548-1.547v-.002a1.496 1.496 0 0 1 1.362-1.614c.013 0 .025-.003.038-.003h.001-.001c.296-.03.436.468.498 1.177.031.356 1.151.084 1.19.468A1.524 1.524 0 0 1 9.635 9.87h-.014z"/></svg>

    <svg height="16" viewBox="0 0 16 16" width="16" x="90" y="162"><path fill="#E85D3D" d="M8.049.004a7.991 7.991 0 1 0 0 15.983 7.991 7.991 0 0 0 0-15.983zm3.531 11.017l-.531.531c-.239.24-.658.211-.934-.064L7.959 9.332l-2.156 2.156c-.276.275-.694.305-.934.064l-.531-.531c-.24-.239-.211-.658.065-.934l2.156-2.156-2.047-2.046c-.276-.277-.305-.695-.065-.935l.531-.53c.24-.24.658-.211.934.064l2.047 2.047 2.047-2.047c.275-.275.694-.305.934-.064l.53.53c.24.24.212.658-.064.935L9.359 7.932l2.156 2.156c.276.275.305.694.065.933z" id="minus_copy"/></svg>

    <svg height="10" viewBox="0 0 18 10" width="18" x="110" y="151"><path fill="#191919" d="M17.584 8.374L9.71.487a1.041 1.041 0 0 0-.721-.298c-.274 0-.522.1-.721.298L.394 8.374a1.021 1.021 0 0 0 1.442 1.443l7.178-7.189 7.153 7.189a1.02 1.02 0 0 0 1.442 0 .998.998 0 0 0-.025-1.443z"/></svg>

    <svg height="31" viewBox="0 0 36 31" width="36" x="140" y="115"><g id="Shape_1_copy_9_1_"><path fill="#E54A26" d="M33.171 7.986H2.652c-1.843 0-2.673.772-2.673 2.623v17.82c0 1.844.874 2.572 2.724 2.572h30.57c1.844 0 2.725-.67 2.725-2.521V10.456c0-1.845-.983-2.47-2.827-2.47zm.843 20.464c0 .287-.287.567-.567.567l-30.889-.026c-.287 0-.566-.287-.566-.567V10.45a.56.56 0 0 1 .566-.567l30.888.027c.286 0 .567.287.567.566V28.45z" id="Shape_1_copy_9"/></g><g id="Rounded_Rectangle_28_1_"><path fill="#E54A26" d="M9.652.076c-.974 0-1.655.974-2.774 2.726-1.12 1.753-1.412 2.97-1.412 3.603s.341.633.341.633l3.749 1.947h2.775c-3.067-2.19-2.044-3.846-.974-4.771s4.479-.146 4.479-.146-2.58-2.434-3.651-3.262c-1.072-.827-1.559-.73-2.533-.73zm19.904 2.726C28.436 1.05 27.755.076 26.782.076c-.975 0-1.461-.098-2.531.729-1.071.828-3.651 3.262-3.651 3.262s3.407-.778 4.479.146 2.093 2.58-.974 4.771h2.775l3.748-1.947s.341 0 .341-.633-.293-1.849-1.413-3.602zm-9.638 2.094h-2.763a.689.689 0 0 0-.688.688v2.714c0 .38.308.688.688.688h2.763c.38 0 .688-.308.688-.688V5.583a.688.688 0 0 0-.688-.687z" id="Rounded_Rectangle_28"/></g><g id="_x31__copy_1_"><path fill="#E54A26" d="M23.604 12.389a7.688 7.688 0 1 0 0 15.376 7.688 7.688 0 0 0 0-15.376zM23.6 26.936a6.853 6.853 0 0 1 0-13.705 6.853 6.853 0 1 1 0 13.705zm-.059-12.852a5.97 5.97 0 1 0 0 11.94 5.97 5.97 0 0 0 0-11.94z" id="_x31__copy"/></g><g id="_x31__copy_3_1_"><path fill="#E54A26" d="M11.646 12.389a7.688 7.688 0 1 0 0 15.376 7.688 7.688 0 0 0 0-15.376zm-.003 14.547a6.853 6.853 0 1 1 .001-13.705 6.853 6.853 0 0 1-.001 13.705zm-.059-12.852a5.97 5.97 0 1 0 0 11.94 5.97 5.97 0 0 0 0-11.94z" id="_x31__copy_3"/></g><g id="_x31__copy_2_1_"><circle fill="#FFF" cx="17.625" cy="19.222" r="7.687" id="_x31__copy_2"/></g><g id="_x31__1_"><path fill="#E54A26" d="M17.563 13.23a5.97 5.97 0 1 0 0 11.94 5.97 5.97 0 0 0 0-11.94zm1.007 9.104h-1.55v-4.936l-1.523.444v-1.174l2.931-1.014h.142v6.68zm-.945-10.799a7.687 7.687 0 1 0 0 15.375 7.687 7.687 0 1 0 0-15.375zm-.003 14.547a6.853 6.853 0 1 1 0-13.706 6.853 6.853 0 0 1 0 13.706z" id="_x31_"/></g></svg>

    <svg height="16" viewBox="0 0 16 16" width="16" x="110" y="163"><path fill="#88BC40" d="M7.967.034a8.014 8.014 0 1 0 0 16.028 8.014 8.014 0 0 0 0-16.028zm3.969 5.929l-5.351 5.351a.344.344 0 0 1-.486 0l-.108-.108-.121-.122-.501-.501-.007-.011-2.315-2.331a.342.342 0 0 1 0-.486l.729-.729a.342.342 0 0 1 .486 0l2.081 2.096 4.375-4.375a.344.344 0 0 1 .486 0l.73.73a.342.342 0 0 1 .002.486z" id="check__copy_2"/></svg>

    <svg height="18" viewBox="0 0 17 18" width="17" x="132" y="150"><path d="M13.637 4.315a.65.65 0 0 0 .65-.65V1.064a.65.65 0 0 0-1.3 0v2.601c-.001.359.29.65.65.65zm-10.133 0c.291 0 .526-.291.526-.65V1.064c0-.359-.235-.649-.526-.649s-.526.29-.526.649v2.601c0 .359.235.65.526.65zm-.53 6.645h3.007V7.984H2.974v2.976zm4 0h3.007V7.984H6.974v2.976zm4.001 0h3.006V7.984h-3.006v2.976zm-8.001 4h3.007v-2.977H2.974v2.977zm4 0h3.007v-2.977H6.974v2.977zm4.001 0h3.006v-2.977h-3.006v2.977zm5.978 1.006V4.445c0-.79-.629-1.43-1.408-1.43h-.607v.649c0 .717-.583 1.301-1.301 1.301a1.303 1.303 0 0 1-1.301-1.301v-.648H4.993v.649c0 .717-.771 1.301-1.488 1.301-.718 0-1.551-.584-1.551-1.301v-.649h-.563a1.42 1.42 0 0 0-1.409 1.43v12.059c0 .787.631 1.464 1.409 1.464h14.218c.777 0 1.377-.677 1.377-1.464l-.033-.539zm-1.045 1.031H1.061c-.059 0-.109-.062-.109-.13V5.992h15.026v9.974l.038.901c.001.069-.049.13-.108.13z"/></svg>

    <svg height="17" viewBox="0 0 13 17" width="13" x="155" y="150"><path fill="#F16A17" d="M11.636 6.946h-.034V5.185A5.07 5.07 0 0 0 6.538.119a5.074 5.074 0 0 0-5.064 5.069V6.95h-.118c-.738 0-1.338.6-1.338 1.338v7.371c0 .737.6 1.338 1.338 1.338h10.279a1.34 1.34 0 0 0 1.338-1.338V8.285a1.34 1.34 0 0 0-1.337-1.339zM7.289 12.3c-.104.075-.131.147-.131.269.003.542.003 1.08.003 1.621a.577.577 0 0 1-.304.545.631.631 0 0 1-.944-.545v-.003c0-.542 0-1.084.003-1.625 0-.11-.024-.183-.121-.255a1.235 1.235 0 0 1-.407-1.521c.238-.527.82-.838 1.369-.728.61.124 1.034.614 1.041 1.225.001.423-.168.768-.509 1.017zm2.096-5.35H3.69V5.188a2.852 2.852 0 0 1 2.848-2.849 2.85 2.85 0 0 1 2.847 2.849V6.95z"/></svg>

    <svg height="26" viewBox="0 0 25 26" width="25" x="140" y="35"><path fill="#E54A26" d="M10.26 10.99a1.045 1.045 0 1 0-2.09 0 1.045 1.045 0 0 0 2.09 0zm5.594 3.197a1.045 1.045 0 1 0 0 2.09 1.045 1.045 0 0 0 0-2.09zm8.918.345l-.389-.53a1.671 1.671 0 0 1-.016-1.948l.378-.536a1.67 1.67 0 0 0-.578-2.437l-.577-.31a1.664 1.664 0 0 1-.856-1.75l.11-.646a1.668 1.668 0 0 0-1.575-1.943l-.657-.026a1.675 1.675 0 0 1-1.534-1.202l-.184-.63a1.664 1.664 0 0 0-2.264-1.066l-.604.257a1.663 1.663 0 0 1-1.901-.42l-.436-.488a1.665 1.665 0 0 0-2.5.021l-.431.494a1.668 1.668 0 0 1-1.896.446l-.61-.253a1.673 1.673 0 0 0-2.249 1.103l-.172.636a1.66 1.66 0 0 1-1.513 1.223l-.657.037a1.668 1.668 0 0 0-1.544 1.97l.121.646a1.667 1.667 0 0 1-.83 1.76l-.573.32a1.667 1.667 0 0 0-.536 2.442l.389.529c.42.578.43 1.36.016 1.949l-.378.535a1.673 1.673 0 0 0 .578 2.438l.578.31c.63.336.977 1.04.856 1.749l-.11.646c-.168.986.572 1.9 1.576 1.942l.657.026a1.675 1.675 0 0 1 1.534 1.203l.184.63a1.665 1.665 0 0 0 2.264 1.066l.604-.258a1.666 1.666 0 0 1 1.901.42l.437.488a1.664 1.664 0 0 0 2.5-.021l.431-.493a1.668 1.668 0 0 1 1.896-.446l.609.252c.93.383 1.98-.137 2.248-1.104l.173-.635a1.659 1.659 0 0 1 1.513-1.225l.656-.036a1.668 1.668 0 0 0 1.545-1.97l-.121-.646a1.666 1.666 0 0 1 .83-1.759l.572-.32a1.663 1.663 0 0 0 .535-2.44zM6.689 10.99a2.518 2.518 0 0 1 2.52-2.52 2.519 2.519 0 0 1 2.521 2.52 2.519 2.519 0 0 1-2.521 2.521 2.522 2.522 0 0 1-2.52-2.521zm3.007 6.499a.615.615 0 0 1-.948-.783l6.613-7.964a.615.615 0 0 1 .948.783l-6.613 7.964zm6.158.262a2.518 2.518 0 0 1-2.52-2.52 2.519 2.519 0 0 1 2.52-2.521 2.52 2.52 0 1 1 0 5.041z" id="Shape_1_copy_27"/></svg>

    <svg height="11" viewBox="0 0 11 11" width="11" x="75" y="177"><path fill="#F16A17" d="M6.805 5.55l3.93-3.93A.926.926 0 1 0 9.425.31l-3.93 3.93L1.565.31a.926.926 0 1 0-1.31 1.31l3.93 3.93L.254 9.48a.926.926 0 1 0 1.31 1.31l3.93-3.93 3.93 3.93a.926.926 0 1 0 1.31-1.31L6.805 5.55z" id="Forma_1"/></svg>

    <svg height="27.754" viewBox="0 0 20 28" width="20" x="140" y="65"><g id="map_pin_copy_27_3_"><path fill="#F37021" d="M19.976 9.922C19.976 4.442 15.505 0 9.991 0 4.479 0 .008 4.442.008 9.922c-.341 6.999 9.983 17.833 9.983 17.833s10.586-10.87 9.985-17.833z" id="map_pin_copy_27"/></g><g id="Лого_copy_72_3_"><path fill="#fff" d="M16.66 10.578c-.133-2.407-1.651-4.541-4.034-5.021-1.8-.361-3.672.291-4.523 1.613a3.73 3.73 0 0 0-.523 2.9c.074.33.203.652.385.949.221.365.514.691.852.924.205.146.417.246.628.308.372.11.737.099 1.045-.005.302-.1.552-.288.701-.539.815-.762-.747-2.668.489-3.251 1.24-.584 2.226 1.668 1.994 2.856-.354 1.821-1.82 2.762-3.59 2.742-2.588-.031-4.439-1.812-4.42-4.361 0-2.225.745-3.201 1.329-3.959.624-.571.854-.797 1.582-1.407 0 0-1.118.169-1.934.585-.7.413-2.946 1.702-3.285 5.448.059 4.574 4.35 7.962 8.734 6.535 2.628-.853 4.737-3.273 4.57-6.317z" id="Лого_copy_72"/></g></svg>

    <svg xmlns="http://www.w3.org/2000/svg" height="15" viewBox="0 0 15 15" width="15" x="0" y="235"><path fill="#F37021" d="M7.47 4.095a3.48 3.48 0 1 0 .001 6.959 3.48 3.48 0 0 0-.001-6.959zm.024 4.952a1.501 1.501 0 1 1 0-3.002 1.501 1.501 0 0 1 0 3.002zm2.519-9.086H4.998A5.001 5.001 0 0 0-.003 4.963v5.015a5.001 5.001 0 0 0 5.001 5.002h5.015a5 5 0 0 0 5.001-5.002V4.963a5.001 5.001 0 0 0-5.001-5.002zm2.971 10.075c0 1.656-1.344 2.96-3 2.96H5.003c-1.657 0-3-1.304-3-2.96v-4.98c0-1.657 1.343-3.04 3-3.04h4.981c1.656 0 3 1.383 3 3.04v4.98zm-2.458-7.351a.96.96 0 1 0 0 1.92.96.96 0 0 0 0-1.92z" id="photo_1"/></svg>

    <svg height="11" viewBox="0 0 11 11" width="11" x="41" y="140"><path fill="#fff" d="M6.805 5.55l3.93-3.93A.926.926 0 1 0 9.425.31l-3.93 3.93L1.565.31a.926.926 0 1 0-1.31 1.31l3.93 3.93L.254 9.48a.926.926 0 1 0 1.31 1.31l3.93-3.93 3.93 3.93a.926.926 0 1 0 1.31-1.31L6.805 5.55z" id="Forma_1"/></svg>

    <svg width="40" height="40" x="0" y="0" id="Laag_1" data-name="Laag 1" xmlns="http://www.w3.org/2000/svg" viewBox="0 0 2000 1556"><defs><style>.cls-11{fill:#231f20;}.cls-12{fill:#f79410;}.cls-13{fill:#ff5f00;}.cls-14{fill:#eb001b;}.cls-15{fill:#f79e1b;}</style></defs><title>Tekengebied 1</title><path class="cls-11" d="M1960.59,1534.9v4h3.73a3.93,3.93,0,0,0,2-.51,1.78,1.78,0,0,0,.75-1.53,1.71,1.71,0,0,0-.75-1.49,3.59,3.59,0,0,0-2-.51h-3.73Zm3.77-2.83a6.92,6.92,0,0,1,4.48,1.3,4.3,4.3,0,0,1,1.57,3.54,4.06,4.06,0,0,1-1.26,3.11,6.14,6.14,0,0,1-3.58,1.49l5,5.7h-3.85l-4.6-5.66h-1.49v5.66h-3.22v-15.13h7Zm-1,20.36a12,12,0,0,0,4.91-1,12.86,12.86,0,0,0,4-2.71,12.63,12.63,0,0,0,2.71-4,12.94,12.94,0,0,0,0-9.9,13.07,13.07,0,0,0-2.71-4,12.89,12.89,0,0,0-4-2.71,12.59,12.59,0,0,0-4.91-.94,13.12,13.12,0,0,0-5,.94,12.77,12.77,0,0,0-4.09,2.71,12.92,12.92,0,0,0-2.67,14,11.92,11.92,0,0,0,2.67,4,12.81,12.81,0,0,0,4.09,2.71,12.45,12.45,0,0,0,5,1m0-29a16.74,16.74,0,0,1,11.75,4.8,16,16,0,0,1,3.54,5.19,16.09,16.09,0,0,1,0,12.65,16.88,16.88,0,0,1-3.54,5.19,17.85,17.85,0,0,1-5.27,3.5,16.33,16.33,0,0,1-6.48,1.3,16.6,16.6,0,0,1-6.56-1.3,17.08,17.08,0,0,1-5.31-3.5A16.88,16.88,0,0,1,1948,1546a16.09,16.09,0,0,1,0-12.65,16,16,0,0,1,3.54-5.19,15.8,15.8,0,0,1,5.31-3.5,16.6,16.6,0,0,1,6.56-1.3M432.16,1465.1c0-28.85,18.9-52.55,49.79-52.55,29.52,0,49.44,22.68,49.44,52.55s-19.92,52.55-49.44,52.55c-30.89,0-49.79-23.7-49.79-52.55m132.88,0V1383H529.35V1403c-11.32-14.78-28.49-24.05-51.84-24.05-46,0-82.1,36.08-82.1,86.19s36.08,86.19,82.1,86.19c23.34,0,40.52-9.28,51.84-24.05v19.93H565V1465.1Zm1205.92,0c0-28.85,18.9-52.55,49.8-52.55,29.55,0,49.44,22.68,49.44,52.55s-19.89,52.55-49.44,52.55c-30.89,0-49.8-23.7-49.8-52.55m132.92,0v-148h-35.72V1403c-11.32-14.78-28.49-24.05-51.84-24.05-46,0-82.1,36.08-82.1,86.19s36.08,86.19,82.1,86.19c23.35,0,40.52-9.28,51.84-24.05v19.93h35.72V1465.1ZM1008,1410.86c23,0,37.77,14.42,41.54,39.81H964.38c3.81-23.7,18.2-39.81,43.63-39.81m.71-32c-48.1,0-81.75,35-81.75,86.19,0,52.19,35,86.19,84.14,86.19,24.72,0,47.36-6.17,67.28-23l-17.49-26.45c-13.76,11-31.28,17.17-47.75,17.17-23,0-43.94-10.65-49.09-40.2h121.87c.35-4.44.71-8.92.71-13.72-.36-51.17-32-86.19-77.94-86.19m430.9,86.19c0-28.85,18.9-52.55,49.79-52.55,29.52,0,49.44,22.68,49.44,52.55s-19.92,52.55-49.44,52.55c-30.89,0-49.8-23.7-49.8-52.55m132.88,0V1383H1536.8V1403c-11.36-14.78-28.49-24.05-51.84-24.05-46,0-82.1,36.08-82.1,86.19s36.08,86.19,82.1,86.19c23.35,0,40.48-9.28,51.84-24.05v19.93h35.68V1465.1Zm-334.42,0c0,49.79,34.66,86.19,87.56,86.19,24.72,0,41.19-5.5,59-19.57l-17.14-28.85c-13.4,9.63-27.47,14.78-43,14.78-28.49-.35-49.44-20.95-49.44-52.55s20.95-52.19,49.44-52.55c15.49,0,29.56,5.15,43,14.78l17.14-28.85c-17.84-14.07-34.31-19.57-59-19.57-52.9,0-87.56,36.39-87.56,86.19m460.1-86.19c-20.59,0-34,9.63-43.27,24.05V1383h-35.37v164.12h35.73v-92c0-27.16,11.67-42.25,35-42.25a57.87,57.87,0,0,1,22.32,4.13l11-33.64c-7.9-3.11-18.2-4.48-25.43-4.48m-956.64,17.17c-17.17-11.32-40.83-17.17-66.93-17.17-41.58,0-68.35,19.93-68.35,52.54,0,26.76,19.93,43.27,56.63,48.42l16.86,2.4c19.57,2.75,28.81,7.9,28.81,17.17,0,12.69-13,19.93-37.41,19.93-24.72,0-42.56-7.9-54.59-17.17L599.74,1530c19.57,14.42,44.29,21.3,71.06,21.3,47.4,0,74.87-22.32,74.87-53.57,0-28.85-21.62-43.94-57.34-49.09l-16.82-2.44c-15.45-2-27.83-5.11-27.83-16.11,0-12,11.67-19.22,31.25-19.22,20.95,0,41.23,7.9,51.17,14.07l15.45-28.85ZM1202,1378.91c-20.59,0-34,9.63-43.23,24.05V1383h-35.37v164.12h35.69v-92c0-27.16,11.67-42.25,35-42.25a57.87,57.87,0,0,1,22.32,4.13l11-33.64c-7.9-3.11-18.2-4.48-25.43-4.48M897.44,1383H839.08v-49.79H803V1383H769.71v32.62H803v74.87c0,38.08,14.78,60.76,57,60.76,15.49,0,33.33-4.8,44.65-12.69L894.34,1508c-10.65,6.17-22.32,9.28-31.6,9.28-17.84,0-23.66-11-23.66-27.47v-74.16h58.36ZM363.85,1547.16v-103c0-38.79-24.72-64.89-64.57-65.24-20.95-.35-42.56,6.17-57.69,29.2-11.32-18.2-29.16-29.2-54.24-29.2-17.53,0-34.66,5.15-48.07,24.37V1383H103.56v164.12h36v-91c0-28.49,15.8-43.63,40.2-43.63,23.7,0,35.69,15.45,35.69,43.27v91.34h36.08v-91c0-28.49,16.47-43.63,40.16-43.63,24.37,0,36,15.45,36,43.27v91.34Z"/><path class="cls-12" d="M1980.94,1001.22v-24h-6.25l-7.23,16.47-7.19-16.47H1954v24h4.44V983.14l6.76,15.6h4.6l6.76-15.64v18.12h4.4Zm-39.65,0V981.33h8v-4.05h-20.44v4.05h8v19.89h4.4Z"/><path class="cls-13" d="M1270.57,1104.15H729.71v-972h540.87Z"/><path class="cls-14" d="M764,618.17c0-197.17,92.32-372.81,236.08-486A615.46,615.46,0,0,0,618.09,0C276.72,0,0,276.76,0,618.17s276.72,618.17,618.09,618.17a615.46,615.46,0,0,0,382-132.17C856.34,991,764,815.35,764,618.17"/><path class="cls-15" d="M2000.25,618.17c0,341.41-276.72,618.17-618.09,618.17a615.65,615.65,0,0,1-382.05-132.17c143.8-113.19,236.12-288.82,236.12-486s-92.32-372.81-236.12-486A615.65,615.65,0,0,1,1382.15,0c341.37,0,618.09,276.76,618.09,618.17"/></svg>
    <svg width="65" height="65" x="45" y="-15" viewBox="0 0 400 120" version="1.1" xmlns="http://www.w3.org/2000/svg" xmlns:xlink="http://www.w3.org/1999/xlink">
        <defs>
            <linearGradient x1="100%" y1="62.9043048%" x2="0%" y2="62.9043048%" id="linearGradient-1">
                <stop stop-color="#1F5CD7" offset="0%"></stop>
                <stop stop-color="#02AEFF" offset="100%"></stop>
            </linearGradient>
        </defs>
        <g id="sim" stroke="none" stroke-width="1" fill="none" fill-rule="evenodd">
            <g id="mir-logo" transform="translate(31.000000, 13.000000)">
                <g id="Group-5">
                    <path d="M32.5505663,0.0163847792 C35.6952917,-0.00242815539 45.0412371,-0.844175419 49,12.5166493 C51.6666667,21.5166493 55.9145075,36.259066 61.7435225,56.7438993 L61.7435225,56.7438993 L64.1174373,56.7438993 C70.3685427,35.1473512 74.6627303,20.4049345 77,12.5166493 C81,-0.983350676 91,0.0166493236 95,0.0166493236 L125.86096,0.0166878181 L125.86096,96.0164413 L94.4066344,96.0164413 L94.4066344,39.4421872 L92.2973975,39.4421872 L74.7631716,96.0164413 L51.0977882,96.0164413 L33.5635623,39.4002658 L31.4543254,39.4002658 L31.4543254,96.0164413 L0,96.0164413 L0,0.0166878181 Z M171.028726,0.0166878181 L171.028726,56.6330713 L173.537996,56.6330713 L194.866787,10.0778192 C199.007082,0.813194049 207.831347,0.0166878181 207.831347,0.0166878181 L207.831347,0.0166878181 L238.269736,0.0166878181 L238.269736,96.0166493 L206.158501,96.0166493 L206.158501,39.4002658 L203.649231,39.4002658 L182.738651,85.955518 C178.598356,95.1782217 169.35588,96.0166493 169.35588,96.0166493 L138.917491,96.0166493 L138.917491,0.0166878181 L171.028726,0.0166878181 Z M349.260509,45.6365042 C344.781335,58.3294446 330.714922,67.4197682 315.141489,67.4197682 L315.141489,67.4197682 L281.466507,67.4197682 L281.466507,96.0166493 L250.930615,96.0166493 L250.930615,45.6365042 Z" id="Combined-Shape" fill="#0F754E"></path>
                    <path d="M316.614216,0.0166878181 L249.329298,0.0166878181 C250.930615,21.3895399 269.336373,39.6860934 288.390129,39.6860934 L351.3823,39.6860934 C355.0174,21.922741 342.503442,0.0166878181 316.614216,0.0166878181 Z" id="path24" fill="url(#linearGradient-1)"></path>
                </g>
            </g>
        </g>
    </svg>
    <svg width="60" height="60" x="0" y="40" viewBox="0 0 120.3 120.3" xmlns="http://www.w3.org/2000/svg"><path d="M22.8 6.6c1.4-1.8 2.4-4.2 2.1-6.6-2.1.1-4.6 1.4-6.1 3.1-1.3 1.5-2.5 4-2.2 6.3 2.4.3 4.7-1 6.2-2.8M24.9 10c-3.4-.2-6.3 1.9-7.9 1.9-1.6 0-4.1-1.8-6.8-1.8-3.5.1-6.7 2-8.5 5.2-3.6 6.3-1 15.6 2.6 20.7 1.7 2.5 3.8 5.3 6.5 5.2 2.6-.1 3.6-1.7 6.7-1.7s4 1.7 6.8 1.6 4.6-2.5 6.3-5.1c2-2.9 2.8-5.7 2.8-5.8-.1-.1-5.5-2.1-5.5-8.3-.1-5.2 4.2-7.7 4.4-7.8-2.3-3.6-6.1-4-7.4-4.1"/><g><path d="M54.3 2.9c7.4 0 12.5 5.1 12.5 12.4 0 7.4-5.2 12.5-12.7 12.5H46v12.9h-5.9V2.9h14.2zm-8.3 20h6.7c5.1 0 8-2.8 8-7.5 0-4.8-2.9-7.5-8-7.5h-6.8v15h.1zM68.3 33c0-4.8 3.7-7.8 10.3-8.2l7.6-.4v-2.1c0-3.1-2.1-4.9-5.5-4.9-3.3 0-5.3 1.6-5.8 4h-5.4c.3-5 4.6-8.7 11.4-8.7 6.7 0 11 3.5 11 9.1v19h-5.4v-4.5h-.1c-1.6 3.1-5.1 5-8.7 5-5.6 0-9.4-3.4-9.4-8.3zm17.9-2.5v-2.2l-6.8.4c-3.4.2-5.3 1.7-5.3 4.1 0 2.4 2 4 5 4 4 0 7.1-2.7 7.1-6.3zM96.9 51v-4.6c.4.1 1.4.1 1.8.1 2.6 0 4-1.1 4.9-3.9 0-.1.5-1.7.5-1.7l-10-27.6h6.1l7 22.5h.1l7-22.5h6L110 42.4c-2.4 6.7-5.1 8.8-10.8 8.8-.4-.1-1.8-.1-2.3-.2z"/></g></svg>
    <svg width="50" height="50" x="110" y="-6"
            xmlns:dc="http://purl.org/dc/elements/1.1/"
            xmlns:cc="http://creativecommons.org/ns#"
            xmlns:rdf="http://www.w3.org/1999/02/22-rdf-syntax-ns#"
            xmlns:svg="http://www.w3.org/2000/svg"
            xmlns="http://www.w3.org/2000/svg"
            xmlns:sodipodi="http://sodipodi.sourceforge.net/DTD/sodipodi-0.dtd"
            xmlns:inkscape="http://www.inkscape.org/namespaces/inkscape"
            version="1.1"
            id="Layer_1"
            viewBox="0 0 1000 324.68351"
            overflow="visible"
            enable-background="new 0 0 659.055 202.068"
            xml:space="preserve"
            inkscape:version="1.0.2 (e86c870879, 2021-01-15)"
            sodipodi:docname="Visa_2021.svg"
            style="overflow:visible"><metadata
   id="metadata3739"><rdf:RDF><cc:Work
       rdf:about=""><dc:format>image/svg+xml</dc:format><dc:type
            rdf:resource="http://purl.org/dc/dcmitype/StillImage" /><dc:title></dc:title></cc:Work></rdf:RDF></metadata><defs
            id="defs3737"><linearGradient
     id="linearGradient3801"><stop
       style="stop-color:#20225f;stop-opacity:1"
       offset="0"
       id="stop3803" /><stop
            id="stop3815"
            offset="0.2"
            style="stop-color:#1a1f61;stop-opacity:1" /><stop
            id="stop3813"
            offset="0.41023257"
            style="stop-color:#172272;stop-opacity:1" /><stop
            id="stop3811"
            offset="0.59519672"
            style="stop-color:#152682;stop-opacity:1" /><stop
            id="stop3809"
            offset="0.80208331"
            style="stop-color:#12288e;stop-opacity:1" /><stop
            style="stop-color:#0e2c9a;stop-opacity:1"
            offset="1"
            id="stop3805" /></linearGradient></defs><sodipodi:namedview
            pagecolor="#ffffff"
            bordercolor="#666666"
            borderopacity="1"
            objecttolerance="10"
            gridtolerance="10"
            guidetolerance="10"
            inkscape:pageopacity="0"
            inkscape:pageshadow="2"
            inkscape:window-width="1366"
            inkscape:window-height="705"
            id="namedview3735"
            showgrid="false"
            fit-margin-left="0.5"
            fit-margin-bottom="0.5"
            fit-margin-top="0.5"
            fit-margin-right="0.5"
            inkscape:zoom="0.49497088"
            inkscape:cx="473.80866"
            inkscape:cy="-26.853447"
            inkscape:window-x="-8"
            inkscape:window-y="-8"
            inkscape:window-maximized="1"
            inkscape:current-layer="Layer_1"
            inkscape:document-rotation="0"><inkscape:grid
     type="xygrid"
     id="grid3787"
     empspacing="5"
     visible="true"
     enabled="true"
     snapvisiblegridlinesonly="true" /></sodipodi:namedview>
        <path
                style="fill:#1434cb;fill-opacity:1;stroke:none"
                d="m 651.18503,0.50000002 c -70.93272,0 -134.32163,36.76584998 -134.32163,104.69357998 0,77.90028 112.42264,83.28082 112.42264,122.41576 0,16.47806 -18.88384,31.22851 -51.13668,31.22851 -45.77308,0 -79.98403,-20.61081 -79.98403,-20.61081 l -14.63836,68.54658 c 0,0 39.41037,17.40989 91.73375,17.40989 77.55217,0 138.57651,-38.57104 138.57651,-107.66029 0,-82.3157 -112.89106,-87.53633 -112.89106,-123.86008 0,-12.9082 15.50201,-27.05169 47.66251,-27.05169 36.28682,0 65.89216,14.98968 65.89216,14.98968 l 14.32608,-66.20444 c 0,0 -32.21317,-13.89668998 -77.64189,-13.89668998 z M 2.2175605,5.49657 0.49999253,15.48969 c 0,0 29.84159547,5.46149 56.71878047,16.35593 34.606624,12.4927 37.071853,19.7653 42.900167,42.35367 l 63.51098,244.83152 85.13673,0 131.15974,-313.53424 -84.94155,0 L 210.7069,218.67018 176.3165,37.97422 C 173.1626,17.29371 157.18709,5.49657 137.63219,5.49657 l -135.4146295,0 z m 411.8650095,0 -66.63383,313.53424 80.99895,0 66.39962,-313.53424 -80.76474,0 z m 451.75943,0 c -19.53181,0 -29.88045,10.45695 -37.47421,28.73022 l -118.66834,284.80402 84.94155,0 16.434,-47.46734 103.48348,0 9.99312,47.46734 74.94843,0 -65.3847,-313.53424 -68.27333,0 z m 11.04709,84.70733 25.17799,117.65341 -67.45359,0 42.2756,-117.65341 z"
                id="path3789"
                inkscape:connector-curvature="0" /></svg>

    <svg width="100" height="100" version="1.1" id="G_Pay_Acceptance_Mark" xmlns="http://www.w3.org/2000/svg" xmlns:xlink="http://www.w3.org/1999/xlink"
         x="50" y="5" viewBox="0 0 1094 742" enable-background="new 0 0 1094 742" xml:space="preserve">
<path id="Base_1_" fill="#FFFFFF" d="M722.7,170h-352c-110,0-200,90-200,200l0,0c0,110,90,200,200,200h352c110,0,200-90,200-200l0,0
	C922.7,260,832.7,170,722.7,170z"/>
        <path id="Outline" fill="#3C4043" d="M722.7,186.2c24.7,0,48.7,4.9,71.3,14.5c21.9,9.3,41.5,22.6,58.5,39.5
	c16.9,16.9,30.2,36.6,39.5,58.5c9.6,22.6,14.5,46.6,14.5,71.3s-4.9,48.7-14.5,71.3c-9.3,21.9-22.6,41.5-39.5,58.5
	c-16.9,16.9-36.6,30.2-58.5,39.5c-22.6,9.6-46.6,14.5-71.3,14.5h-352c-24.7,0-48.7-4.9-71.3-14.5c-21.9-9.3-41.5-22.6-58.5-39.5
	c-16.9-16.9-30.2-36.6-39.5-58.5c-9.6-22.6-14.5-46.6-14.5-71.3s4.9-48.7,14.5-71.3c9.3-21.9,22.6-41.5,39.5-58.5
	c16.9-16.9,36.6-30.2,58.5-39.5c22.6-9.6,46.6-14.5,71.3-14.5L722.7,186.2 M722.7,170h-352c-110,0-200,90-200,200l0,0
	c0,110,90,200,200,200h352c110,0,200-90,200-200l0,0C922.7,260,832.7,170,722.7,170L722.7,170z"/>
        <g id="G_Pay_Lockup_1_">
	<g id="Pay_Typeface_3_">
		<path id="Letter_p_3_" fill="#3C4043" d="M529.3,384.2v60.5h-19.2V295.3H561c12.9,0,23.9,4.3,32.9,12.9
			c9.2,8.6,13.8,19.1,13.8,31.5c0,12.7-4.6,23.2-13.8,31.7c-8.9,8.5-19.9,12.7-32.9,12.7h-31.7V384.2z M529.3,313.7v52.1h32.1
			c7.6,0,14-2.6,19-7.7c5.1-5.1,7.7-11.3,7.7-18.3c0-6.9-2.6-13-7.7-18.1c-5-5.3-11.3-7.9-19-7.9h-32.1V313.7z"/>
        <path id="Letter_a_3_" fill="#3C4043" d="M657.9,339.1c14.2,0,25.4,3.8,33.6,11.4c8.2,7.6,12.3,18,12.3,31.2v63h-18.3v-14.2h-0.8
			c-7.9,11.7-18.5,17.5-31.7,17.5c-11.3,0-20.7-3.3-28.3-10s-11.4-15-11.4-25c0-10.6,4-19,12-25.2c8-6.3,18.7-9.4,32-9.4
			c11.4,0,20.8,2.1,28.1,6.3v-4.4c0-6.7-2.6-12.3-7.9-17c-5.3-4.7-11.5-7-18.6-7c-10.7,0-19.2,4.5-25.4,13.6l-16.9-10.6
			C625.9,345.8,639.7,339.1,657.9,339.1z M633.1,413.3c0,5,2.1,9.2,6.4,12.5c4.2,3.3,9.2,5,14.9,5c8.1,0,15.3-3,21.6-9
			s9.5-13,9.5-21.1c-6-4.7-14.3-7.1-25-7.1c-7.8,0-14.3,1.9-19.5,5.6C635.7,403.1,633.1,407.8,633.1,413.3z"/>
        <path id="Letter_y_3_" fill="#3C4043" d="M808.2,342.4l-64,147.2h-19.8l23.8-51.5L706,342.4h20.9l30.4,73.4h0.4l29.6-73.4H808.2z"
        />
	</g>
            <g id="G_Mark_1_">
		<path id="Blue_500" fill="#4285F4" d="M452.93,372c0-6.26-0.56-12.25-1.6-18.01h-80.48v33L417.2,387
			c-1.88,10.98-7.93,20.34-17.2,26.58v21.41h27.59C443.7,420.08,452.93,398.04,452.93,372z"/>
                <path id="Green_500_1_" fill="#34A853" d="M400.01,413.58c-7.68,5.18-17.57,8.21-29.14,8.21c-22.35,0-41.31-15.06-48.1-35.36
			h-28.46v22.08c14.1,27.98,43.08,47.18,76.56,47.18c23.14,0,42.58-7.61,56.73-20.71L400.01,413.58z"/>
                <path id="Yellow_500_1_" fill="#FABB05" d="M320.09,370.05c0-5.7,0.95-11.21,2.68-16.39v-22.08h-28.46
			c-5.83,11.57-9.11,24.63-9.11,38.47s3.29,26.9,9.11,38.47l28.46-22.08C321.04,381.26,320.09,375.75,320.09,370.05z"/>
                <path id="Red_500" fill="#E94235" d="M370.87,318.3c12.63,0,23.94,4.35,32.87,12.85l24.45-24.43
			c-14.85-13.83-34.21-22.32-57.32-22.32c-33.47,0-62.46,19.2-76.56,47.18l28.46,22.08C329.56,333.36,348.52,318.3,370.87,318.3z"/>
	</g>
</g>
</svg>

    <svg height="8" viewBox="0 0 8 8" width="8" x="95" y="185"><path fill="#363636" d="M7.986 2.993H5.008V.008h-2v2.985H.01v1.996h2.998v3.032h2V4.989h2.978z" id="Shape_64_copy"/></svg>

    <svg height="8" viewBox="0 0 8 8" width="8" x="110" y="185"><path fill="#fff" d="M7.986 2.993H5.008V.008h-2v2.985H.01v1.996h2.998v3.032h2V4.989h2.978z" id="Shape_64_copy"/></svg>

    <svg height="2" viewBox="0 0 8 2" width="8" x="95" y="200"><path fill="#363636" d="M.01-.007h7.978v1.996H.01z" id="Shape_64_copy_2"/></svg>

    <svg height="2" viewBox="0 0 8 2" width="8" x="110" y="200"><path fill="#fff" d="M.01-.007h7.978v1.996H.01z" id="Shape_64_copy_2"/></svg>

    <svg xmlns="http://www.w3.org/2000/svg" fill="#B2B2B2" viewBox="0 0 50 50" width="50px" height="50px" x="200" y="0"><path d="M 44.376953 5.9863281 C 43.889905 6.0076957 43.415817 6.1432497 42.988281 6.3144531 C 42.565113 6.4845113 40.128883 7.5243408 36.53125 9.0625 C 32.933617 10.600659 28.256963 12.603668 23.621094 14.589844 C 14.349356 18.562196 5.2382813 22.470703 5.2382812 22.470703 L 5.3046875 22.445312 C 5.3046875 22.445312 4.7547875 22.629122 4.1972656 23.017578 C 3.9185047 23.211806 3.6186028 23.462555 3.3730469 23.828125 C 3.127491 24.193695 2.9479735 24.711788 3.015625 25.259766 C 3.2532479 27.184511 5.2480469 27.730469 5.2480469 27.730469 L 5.2558594 27.734375 L 14.158203 30.78125 C 14.385177 31.538434 16.858319 39.792923 17.402344 41.541016 C 17.702797 42.507484 17.984013 43.064995 18.277344 43.445312 C 18.424133 43.635633 18.577962 43.782915 18.748047 43.890625 C 18.815627 43.933415 18.8867 43.965525 18.957031 43.994141 C 18.958531 43.994806 18.959437 43.99348 18.960938 43.994141 C 18.969579 43.997952 18.977708 43.998295 18.986328 44.001953 L 18.962891 43.996094 C 18.979231 44.002694 18.995359 44.013801 19.011719 44.019531 C 19.043456 44.030655 19.062905 44.030268 19.103516 44.039062 C 20.123059 44.395042 20.966797 43.734375 20.966797 43.734375 L 21.001953 43.707031 L 26.470703 38.634766 L 35.345703 45.554688 L 35.457031 45.605469 C 37.010484 46.295216 38.415349 45.910403 39.193359 45.277344 C 39.97137 44.644284 40.277344 43.828125 40.277344 43.828125 L 40.310547 43.742188 L 46.832031 9.7519531 C 46.998903 8.9915162 47.022612 8.334202 46.865234 7.7402344 C 46.707857 7.1462668 46.325492 6.6299361 45.845703 6.34375 C 45.365914 6.0575639 44.864001 5.9649605 44.376953 5.9863281 z M 44.429688 8.0195312 C 44.627491 8.0103707 44.774102 8.032983 44.820312 8.0605469 C 44.866523 8.0881109 44.887272 8.0844829 44.931641 8.2519531 C 44.976011 8.419423 45.000036 8.7721605 44.878906 9.3242188 L 44.875 9.3359375 L 38.390625 43.128906 C 38.375275 43.162926 38.240151 43.475531 37.931641 43.726562 C 37.616914 43.982653 37.266874 44.182554 36.337891 43.792969 L 26.632812 36.224609 L 26.359375 36.009766 L 26.353516 36.015625 L 23.451172 33.837891 L 39.761719 14.648438 A 1.0001 1.0001 0 0 0 38.974609 13 A 1.0001 1.0001 0 0 0 38.445312 13.167969 L 14.84375 28.902344 L 5.9277344 25.849609 C 5.9277344 25.849609 5.0423771 25.356927 5 25.013672 C 4.99765 24.994652 4.9871961 25.011869 5.0332031 24.943359 C 5.0792101 24.874869 5.1948546 24.759225 5.3398438 24.658203 C 5.6298218 24.456159 5.9609375 24.333984 5.9609375 24.333984 L 5.9941406 24.322266 L 6.0273438 24.308594 C 6.0273438 24.308594 15.138894 20.399882 24.410156 16.427734 C 29.045787 14.44166 33.721617 12.440122 37.318359 10.902344 C 40.914175 9.3649615 43.512419 8.2583658 43.732422 8.1699219 C 43.982886 8.0696253 44.231884 8.0286918 44.429688 8.0195312 z M 33.613281 18.792969 L 21.244141 33.345703 L 21.238281 33.351562 A 1.0001 1.0001 0 0 0 21.183594 33.423828 A 1.0001 1.0001 0 0 0 21.128906 33.507812 A 1.0001 1.0001 0 0 0 20.998047 33.892578 A 1.0001 1.0001 0 0 0 20.998047 33.900391 L 19.386719 41.146484 C 19.35993 41.068197 19.341173 41.039555 19.3125 40.947266 L 19.3125 40.945312 C 18.800713 39.30085 16.467362 31.5161 16.144531 30.439453 L 33.613281 18.792969 z M 22.640625 35.730469 L 24.863281 37.398438 L 21.597656 40.425781 L 22.640625 35.730469 z"/></svg>

    <svg height="88" viewBox="0 0 88 88" width="88" x="2" y="270"><path fill="#E96C1F" d="M44.016.024C19.73.024.043 19.712.043 43.997c0 24.286 19.688 43.973 43.973 43.973s43.973-19.687 43.973-43.973C87.989 19.712 68.302.024 44.016.024zm0 81.019c-20.458 0-37.044-16.586-37.044-37.045S23.558 6.954 44.016 6.954c20.459 0 37.044 16.585 37.044 37.044S64.476 81.043 44.016 81.043zm16.296-50.482a1.6 1.6 0 0 0-2.262 0L37.713 50.899l-9.675-9.746a1.6 1.6 0 0 0-2.262 0l-3.392 3.393a1.598 1.598 0 0 0 0 2.261l10.781 10.859c.008.009.004.021.012.029l2.355 2.355.532.537.002-.002.501.502a1.6 1.6 0 0 0 2.261 0l24.874-24.874a1.6 1.6 0 0 0 0-2.261l-3.39-3.391z" id="check_transparent_copy"/></svg>

</svg>
